%TF.GenerationSoftware,KiCad,Pcbnew,9.0.4*%
%TF.CreationDate,2026-04-14T20:57:48-05:00*%
%TF.ProjectId,DuelTank,4475656c-5461-46e6-9b2e-6b696361645f,v1.0.2*%
%TF.SameCoordinates,Original*%
%TF.FileFunction,Legend,Bot*%
%TF.FilePolarity,Positive*%
%FSLAX46Y46*%
G04 Gerber Fmt 4.6, Leading zero omitted, Abs format (unit mm)*
G04 Created by KiCad (PCBNEW 9.0.4) date 2026-04-14 20:57:48*
%MOMM*%
%LPD*%
G01*
G04 APERTURE LIST*
G04 Aperture macros list*
%AMRoundRect*
0 Rectangle with rounded corners*
0 $1 Rounding radius*
0 $2 $3 $4 $5 $6 $7 $8 $9 X,Y pos of 4 corners*
0 Add a 4 corners polygon primitive as box body*
4,1,4,$2,$3,$4,$5,$6,$7,$8,$9,$2,$3,0*
0 Add four circle primitives for the rounded corners*
1,1,$1+$1,$2,$3*
1,1,$1+$1,$4,$5*
1,1,$1+$1,$6,$7*
1,1,$1+$1,$8,$9*
0 Add four rect primitives between the rounded corners*
20,1,$1+$1,$2,$3,$4,$5,0*
20,1,$1+$1,$4,$5,$6,$7,0*
20,1,$1+$1,$6,$7,$8,$9,0*
20,1,$1+$1,$8,$9,$2,$3,0*%
G04 Aperture macros list end*
%ADD10C,0.200000*%
%ADD11C,0.125000*%
%ADD12C,0.400000*%
%ADD13C,0.150000*%
%ADD14C,0.100000*%
%ADD15C,0.120000*%
%ADD16C,0.508000*%
%ADD17C,0.228600*%
%ADD18C,0.127000*%
%ADD19R,1.700000X1.700000*%
%ADD20C,1.700000*%
%ADD21C,2.000000*%
%ADD22O,1.700000X1.700000*%
%ADD23O,1.400000X1.400000*%
%ADD24C,1.400000*%
%ADD25O,1.600000X1.600000*%
%ADD26C,1.600000*%
%ADD27C,1.800000*%
%ADD28R,1.800000X1.800000*%
%ADD29C,6.400000*%
%ADD30C,3.600000*%
%ADD31C,1.752600*%
%ADD32R,1.600000X2.400000*%
%ADD33O,1.600000X2.400000*%
%ADD34C,2.700000*%
%ADD35R,1.750000X1.750000*%
%ADD36C,1.750000*%
%ADD37R,1.600000X1.600000*%
%ADD38R,2.032000X2.032000*%
%ADD39C,2.032000*%
%ADD40C,1.724000*%
%ADD41RoundRect,0.102000X-0.760000X0.760000X-0.760000X-0.760000X0.760000X-0.760000X0.760000X0.760000X0*%
G04 APERTURE END LIST*
D10*
G36*
X176300326Y-109041028D02*
G01*
X176042981Y-109041028D01*
X175983371Y-109011223D01*
X175958703Y-108986554D01*
X175928898Y-108926944D01*
X175928898Y-108831302D01*
X175958703Y-108771692D01*
X175983371Y-108747023D01*
X176042981Y-108717219D01*
X176300326Y-108717219D01*
X176300326Y-109041028D01*
G37*
G36*
X176611437Y-109828330D02*
G01*
X172238756Y-109828330D01*
X172238756Y-108597710D01*
X172349867Y-108597710D01*
X172349867Y-108636728D01*
X172364799Y-108672776D01*
X172392389Y-108700366D01*
X172428437Y-108715298D01*
X172447946Y-108717219D01*
X172633660Y-108717219D01*
X172633660Y-109617219D01*
X172635581Y-109636728D01*
X172650513Y-109672776D01*
X172678103Y-109700366D01*
X172714151Y-109715298D01*
X172753169Y-109715298D01*
X172789217Y-109700366D01*
X172816807Y-109672776D01*
X172831739Y-109636728D01*
X172833660Y-109617219D01*
X172833660Y-108717219D01*
X173019374Y-108717219D01*
X173038883Y-108715298D01*
X173074931Y-108700366D01*
X173102521Y-108672776D01*
X173117453Y-108636728D01*
X173117453Y-108617219D01*
X173252708Y-108617219D01*
X173252708Y-109617219D01*
X173254629Y-109636728D01*
X173269561Y-109672776D01*
X173297151Y-109700366D01*
X173333199Y-109715298D01*
X173372217Y-109715298D01*
X173408265Y-109700366D01*
X173435855Y-109672776D01*
X173450787Y-109636728D01*
X173452708Y-109617219D01*
X173452708Y-109193409D01*
X173824136Y-109193409D01*
X173824136Y-109617219D01*
X173826057Y-109636728D01*
X173840989Y-109672776D01*
X173868579Y-109700366D01*
X173904627Y-109715298D01*
X173943645Y-109715298D01*
X173979693Y-109700366D01*
X174007283Y-109672776D01*
X174022215Y-109636728D01*
X174024136Y-109617219D01*
X174024136Y-109188647D01*
X174252708Y-109188647D01*
X174252708Y-109521980D01*
X174254629Y-109541488D01*
X174269560Y-109577537D01*
X174281997Y-109592690D01*
X174329615Y-109640310D01*
X174344769Y-109652747D01*
X174348088Y-109654122D01*
X174350804Y-109656477D01*
X174368704Y-109664468D01*
X174511561Y-109712087D01*
X174521233Y-109714286D01*
X174523675Y-109715298D01*
X174527212Y-109715646D01*
X174530676Y-109716434D01*
X174533310Y-109716246D01*
X174543184Y-109717219D01*
X174638422Y-109717219D01*
X174648295Y-109716246D01*
X174650929Y-109716434D01*
X174654392Y-109715646D01*
X174657931Y-109715298D01*
X174660373Y-109714286D01*
X174670045Y-109712087D01*
X174812901Y-109664468D01*
X174830802Y-109656477D01*
X174833517Y-109654122D01*
X174836837Y-109652747D01*
X174851990Y-109640310D01*
X174947228Y-109545071D01*
X174953520Y-109537404D01*
X174955517Y-109535673D01*
X174957410Y-109532665D01*
X174959665Y-109529918D01*
X174960676Y-109527476D01*
X174965960Y-109519082D01*
X175013579Y-109423845D01*
X175014125Y-109422416D01*
X175014555Y-109421837D01*
X175017476Y-109413660D01*
X175020585Y-109405536D01*
X175020636Y-109404815D01*
X175021150Y-109403377D01*
X175068769Y-109212901D01*
X175069269Y-109209519D01*
X175069834Y-109208156D01*
X175070557Y-109200805D01*
X175071637Y-109193508D01*
X175071419Y-109192049D01*
X175071755Y-109188647D01*
X175071755Y-109045790D01*
X175071419Y-109042387D01*
X175071637Y-109040929D01*
X175070557Y-109033631D01*
X175069834Y-109026281D01*
X175069269Y-109024917D01*
X175068769Y-109021536D01*
X175021150Y-108831060D01*
X175020636Y-108829621D01*
X175020585Y-108828901D01*
X175017476Y-108820776D01*
X175014555Y-108812600D01*
X175014125Y-108812020D01*
X175013579Y-108810592D01*
X174965960Y-108715355D01*
X174960673Y-108706956D01*
X174959664Y-108704519D01*
X174957412Y-108701775D01*
X174955517Y-108698764D01*
X174953519Y-108697031D01*
X174947228Y-108689365D01*
X174875082Y-108617219D01*
X175300326Y-108617219D01*
X175300326Y-109617219D01*
X175302247Y-109636728D01*
X175317179Y-109672776D01*
X175344769Y-109700366D01*
X175380817Y-109715298D01*
X175419835Y-109715298D01*
X175455883Y-109700366D01*
X175483473Y-109672776D01*
X175498405Y-109636728D01*
X175500326Y-109617219D01*
X175500326Y-108807695D01*
X175728898Y-108807695D01*
X175728898Y-108950552D01*
X175730819Y-108970061D01*
X175732194Y-108973381D01*
X175732449Y-108976965D01*
X175739455Y-108995273D01*
X175787074Y-109090511D01*
X175792359Y-109098907D01*
X175793370Y-109101347D01*
X175795623Y-109104093D01*
X175797517Y-109107101D01*
X175799511Y-109108830D01*
X175805806Y-109116501D01*
X175853425Y-109164119D01*
X175861091Y-109170411D01*
X175862824Y-109172409D01*
X175865832Y-109174302D01*
X175868578Y-109176556D01*
X175871018Y-109177566D01*
X175879415Y-109182852D01*
X175974652Y-109230471D01*
X175976942Y-109231347D01*
X175746975Y-109559873D01*
X175737361Y-109576957D01*
X175728921Y-109615051D01*
X175735702Y-109653476D01*
X175756671Y-109686381D01*
X175788636Y-109708756D01*
X175826730Y-109717196D01*
X175865155Y-109710415D01*
X175898060Y-109689446D01*
X175910821Y-109674565D01*
X176214296Y-109241028D01*
X176300326Y-109241028D01*
X176300326Y-109617219D01*
X176302247Y-109636728D01*
X176317179Y-109672776D01*
X176344769Y-109700366D01*
X176380817Y-109715298D01*
X176419835Y-109715298D01*
X176455883Y-109700366D01*
X176483473Y-109672776D01*
X176498405Y-109636728D01*
X176500326Y-109617219D01*
X176500326Y-108617219D01*
X176498405Y-108597710D01*
X176483473Y-108561662D01*
X176455883Y-108534072D01*
X176419835Y-108519140D01*
X176400326Y-108517219D01*
X176019374Y-108517219D01*
X175999865Y-108519140D01*
X175996544Y-108520515D01*
X175992961Y-108520770D01*
X175974652Y-108527776D01*
X175879415Y-108575395D01*
X175871018Y-108580680D01*
X175868578Y-108581691D01*
X175865832Y-108583944D01*
X175862824Y-108585838D01*
X175861091Y-108587835D01*
X175853425Y-108594128D01*
X175805806Y-108641746D01*
X175799511Y-108649416D01*
X175797517Y-108651146D01*
X175795623Y-108654153D01*
X175793370Y-108656900D01*
X175792359Y-108659339D01*
X175787074Y-108667736D01*
X175739455Y-108762974D01*
X175732449Y-108781282D01*
X175732194Y-108784865D01*
X175730819Y-108788186D01*
X175728898Y-108807695D01*
X175500326Y-108807695D01*
X175500326Y-108617219D01*
X175498405Y-108597710D01*
X175483473Y-108561662D01*
X175455883Y-108534072D01*
X175419835Y-108519140D01*
X175380817Y-108519140D01*
X175344769Y-108534072D01*
X175317179Y-108561662D01*
X175302247Y-108597710D01*
X175300326Y-108617219D01*
X174875082Y-108617219D01*
X174851990Y-108594127D01*
X174836836Y-108581691D01*
X174833517Y-108580316D01*
X174830802Y-108577961D01*
X174812901Y-108569970D01*
X174670045Y-108522351D01*
X174660373Y-108520151D01*
X174657931Y-108519140D01*
X174654392Y-108518791D01*
X174650929Y-108518004D01*
X174648295Y-108518191D01*
X174638422Y-108517219D01*
X174495565Y-108517219D01*
X174476056Y-108519140D01*
X174472735Y-108520515D01*
X174469152Y-108520770D01*
X174450843Y-108527776D01*
X174355606Y-108575395D01*
X174339015Y-108585838D01*
X174313451Y-108615315D01*
X174301112Y-108652331D01*
X174303878Y-108691251D01*
X174321327Y-108726150D01*
X174350804Y-108751714D01*
X174387820Y-108764053D01*
X174426740Y-108761287D01*
X174445048Y-108754281D01*
X174519172Y-108717219D01*
X174622195Y-108717219D01*
X174727259Y-108752240D01*
X174794332Y-108819313D01*
X174829784Y-108890218D01*
X174871755Y-109058099D01*
X174871755Y-109176337D01*
X174829784Y-109344218D01*
X174794331Y-109415124D01*
X174727260Y-109482197D01*
X174622195Y-109517219D01*
X174559410Y-109517219D01*
X174454345Y-109482197D01*
X174452708Y-109480559D01*
X174452708Y-109288647D01*
X174543184Y-109288647D01*
X174562693Y-109286726D01*
X174598741Y-109271794D01*
X174626331Y-109244204D01*
X174641263Y-109208156D01*
X174641263Y-109169138D01*
X174626331Y-109133090D01*
X174598741Y-109105500D01*
X174562693Y-109090568D01*
X174543184Y-109088647D01*
X174352708Y-109088647D01*
X174333199Y-109090568D01*
X174297151Y-109105500D01*
X174269561Y-109133090D01*
X174254629Y-109169138D01*
X174252708Y-109188647D01*
X174024136Y-109188647D01*
X174024136Y-108617219D01*
X174022215Y-108597710D01*
X174007283Y-108561662D01*
X173979693Y-108534072D01*
X173943645Y-108519140D01*
X173904627Y-108519140D01*
X173868579Y-108534072D01*
X173840989Y-108561662D01*
X173826057Y-108597710D01*
X173824136Y-108617219D01*
X173824136Y-108993409D01*
X173452708Y-108993409D01*
X173452708Y-108617219D01*
X173450787Y-108597710D01*
X173435855Y-108561662D01*
X173408265Y-108534072D01*
X173372217Y-108519140D01*
X173333199Y-108519140D01*
X173297151Y-108534072D01*
X173269561Y-108561662D01*
X173254629Y-108597710D01*
X173252708Y-108617219D01*
X173117453Y-108617219D01*
X173117453Y-108597710D01*
X173102521Y-108561662D01*
X173074931Y-108534072D01*
X173038883Y-108519140D01*
X173019374Y-108517219D01*
X172447946Y-108517219D01*
X172428437Y-108519140D01*
X172392389Y-108534072D01*
X172364799Y-108561662D01*
X172349867Y-108597710D01*
X172238756Y-108597710D01*
X172238756Y-108406108D01*
X176611437Y-108406108D01*
X176611437Y-109828330D01*
G37*
G36*
X149393081Y-109898330D02*
G01*
X145972780Y-109898330D01*
X145972780Y-108667710D01*
X146083891Y-108667710D01*
X146083891Y-108706728D01*
X146098823Y-108742776D01*
X146126413Y-108770366D01*
X146162461Y-108785298D01*
X146181970Y-108787219D01*
X146367684Y-108787219D01*
X146367684Y-109687219D01*
X146369605Y-109706728D01*
X146384537Y-109742776D01*
X146412127Y-109770366D01*
X146448175Y-109785298D01*
X146487193Y-109785298D01*
X146523241Y-109770366D01*
X146550831Y-109742776D01*
X146565763Y-109706728D01*
X146567684Y-109687219D01*
X146567684Y-108787219D01*
X146753398Y-108787219D01*
X146772907Y-108785298D01*
X146808955Y-108770366D01*
X146836545Y-108742776D01*
X146851477Y-108706728D01*
X146851477Y-108667710D01*
X146893415Y-108667710D01*
X146893415Y-108706728D01*
X146908347Y-108742776D01*
X146935937Y-108770366D01*
X146971985Y-108785298D01*
X146991494Y-108787219D01*
X147367684Y-108787219D01*
X147367684Y-109063409D01*
X147134351Y-109063409D01*
X147114842Y-109065330D01*
X147078794Y-109080262D01*
X147051204Y-109107852D01*
X147036272Y-109143900D01*
X147036272Y-109182918D01*
X147051204Y-109218966D01*
X147078794Y-109246556D01*
X147114842Y-109261488D01*
X147134351Y-109263409D01*
X147367684Y-109263409D01*
X147367684Y-109687219D01*
X147369605Y-109706728D01*
X147384537Y-109742776D01*
X147412127Y-109770366D01*
X147448175Y-109785298D01*
X147487193Y-109785298D01*
X147523241Y-109770366D01*
X147550831Y-109742776D01*
X147565763Y-109706728D01*
X147567684Y-109687219D01*
X147567684Y-108687219D01*
X147565763Y-108667710D01*
X147798177Y-108667710D01*
X147798177Y-108706728D01*
X147813109Y-108742776D01*
X147840699Y-108770366D01*
X147876747Y-108785298D01*
X147896256Y-108787219D01*
X148272446Y-108787219D01*
X148272446Y-109063409D01*
X148039113Y-109063409D01*
X148019604Y-109065330D01*
X147983556Y-109080262D01*
X147955966Y-109107852D01*
X147941034Y-109143900D01*
X147941034Y-109182918D01*
X147955966Y-109218966D01*
X147983556Y-109246556D01*
X148019604Y-109261488D01*
X148039113Y-109263409D01*
X148272446Y-109263409D01*
X148272446Y-109587219D01*
X147896256Y-109587219D01*
X147876747Y-109589140D01*
X147840699Y-109604072D01*
X147813109Y-109631662D01*
X147798177Y-109667710D01*
X147798177Y-109706728D01*
X147813109Y-109742776D01*
X147840699Y-109770366D01*
X147876747Y-109785298D01*
X147896256Y-109787219D01*
X148372446Y-109787219D01*
X148391955Y-109785298D01*
X148428003Y-109770366D01*
X148455593Y-109742776D01*
X148470525Y-109706728D01*
X148472446Y-109687219D01*
X148472446Y-109667710D01*
X148607701Y-109667710D01*
X148607701Y-109706728D01*
X148622633Y-109742776D01*
X148650223Y-109770366D01*
X148686271Y-109785298D01*
X148705780Y-109787219D01*
X149181970Y-109787219D01*
X149201479Y-109785298D01*
X149237527Y-109770366D01*
X149265117Y-109742776D01*
X149280049Y-109706728D01*
X149281970Y-109687219D01*
X149281970Y-108687219D01*
X149280049Y-108667710D01*
X149265117Y-108631662D01*
X149237527Y-108604072D01*
X149201479Y-108589140D01*
X149162461Y-108589140D01*
X149126413Y-108604072D01*
X149098823Y-108631662D01*
X149083891Y-108667710D01*
X149081970Y-108687219D01*
X149081970Y-109587219D01*
X148705780Y-109587219D01*
X148686271Y-109589140D01*
X148650223Y-109604072D01*
X148622633Y-109631662D01*
X148607701Y-109667710D01*
X148472446Y-109667710D01*
X148472446Y-108687219D01*
X148470525Y-108667710D01*
X148455593Y-108631662D01*
X148428003Y-108604072D01*
X148391955Y-108589140D01*
X148372446Y-108587219D01*
X147896256Y-108587219D01*
X147876747Y-108589140D01*
X147840699Y-108604072D01*
X147813109Y-108631662D01*
X147798177Y-108667710D01*
X147565763Y-108667710D01*
X147550831Y-108631662D01*
X147523241Y-108604072D01*
X147487193Y-108589140D01*
X147467684Y-108587219D01*
X146991494Y-108587219D01*
X146971985Y-108589140D01*
X146935937Y-108604072D01*
X146908347Y-108631662D01*
X146893415Y-108667710D01*
X146851477Y-108667710D01*
X146836545Y-108631662D01*
X146808955Y-108604072D01*
X146772907Y-108589140D01*
X146753398Y-108587219D01*
X146181970Y-108587219D01*
X146162461Y-108589140D01*
X146126413Y-108604072D01*
X146098823Y-108631662D01*
X146083891Y-108667710D01*
X145972780Y-108667710D01*
X145972780Y-108476108D01*
X149393081Y-108476108D01*
X149393081Y-109898330D01*
G37*
D11*
G36*
X120293835Y-109213428D02*
G01*
X119990138Y-109213428D01*
X119917166Y-109176942D01*
X119883893Y-109143669D01*
X119847407Y-109070697D01*
X119847407Y-108957350D01*
X119883893Y-108884378D01*
X119917166Y-108851105D01*
X119990138Y-108814619D01*
X120293835Y-108814619D01*
X120293835Y-109213428D01*
G37*
G36*
X121863279Y-109925730D02*
G01*
X118230559Y-109925730D01*
X118230559Y-109680583D01*
X118346211Y-109680583D01*
X118346212Y-109728418D01*
X118346214Y-109728420D01*
X118359760Y-109748694D01*
X118407379Y-109796313D01*
X118427652Y-109809858D01*
X118427655Y-109809861D01*
X118427656Y-109809861D01*
X118475490Y-109809861D01*
X118475491Y-109809861D01*
X118475493Y-109809858D01*
X118495767Y-109796313D01*
X118543386Y-109748694D01*
X118556931Y-109728420D01*
X118556934Y-109728418D01*
X118556934Y-109680583D01*
X118543387Y-109660306D01*
X118495768Y-109612686D01*
X118475491Y-109599138D01*
X118427656Y-109599137D01*
X118427655Y-109599138D01*
X118407378Y-109612686D01*
X118359759Y-109660306D01*
X118346211Y-109680583D01*
X118230559Y-109680583D01*
X118230559Y-108804928D01*
X118341670Y-108804928D01*
X118389289Y-109376357D01*
X118391243Y-109383166D01*
X118392044Y-109390206D01*
X118393111Y-109391467D01*
X118393831Y-109395084D01*
X118394999Y-109396252D01*
X118396017Y-109399797D01*
X118410601Y-109412137D01*
X118422942Y-109426722D01*
X118425698Y-109426951D01*
X118427655Y-109428908D01*
X118430421Y-109428908D01*
X118432533Y-109430695D01*
X118451575Y-109429108D01*
X118470613Y-109430695D01*
X118472725Y-109428908D01*
X118475491Y-109428908D01*
X118477446Y-109426952D01*
X118480204Y-109426723D01*
X118492546Y-109412136D01*
X118507129Y-109399797D01*
X118508146Y-109396252D01*
X118509315Y-109395084D01*
X118510034Y-109391467D01*
X118511102Y-109390206D01*
X118511902Y-109383165D01*
X118513857Y-109376356D01*
X118561476Y-108804928D01*
X118558721Y-108780698D01*
X118556934Y-108778586D01*
X118556934Y-108775821D01*
X118543386Y-108755544D01*
X118516043Y-108728201D01*
X118822403Y-108728201D01*
X118822403Y-108776037D01*
X118856227Y-108809861D01*
X118880145Y-108814619D01*
X119293835Y-108814619D01*
X119293835Y-109165809D01*
X119023002Y-109165809D01*
X118999084Y-109170567D01*
X118965260Y-109204391D01*
X118965260Y-109252227D01*
X118999084Y-109286051D01*
X119023002Y-109290809D01*
X119293835Y-109290809D01*
X119293835Y-109689619D01*
X118880145Y-109689619D01*
X118856227Y-109694377D01*
X118822403Y-109728201D01*
X118822403Y-109776037D01*
X118856227Y-109809861D01*
X118880145Y-109814619D01*
X119356335Y-109814619D01*
X119380253Y-109809861D01*
X119414077Y-109776037D01*
X119414077Y-109776036D01*
X119418835Y-109752119D01*
X119418835Y-108942595D01*
X119722407Y-108942595D01*
X119722407Y-109085452D01*
X119723017Y-109088523D01*
X119722565Y-109089882D01*
X119725210Y-109099542D01*
X119727165Y-109109370D01*
X119728178Y-109110383D01*
X119729005Y-109113403D01*
X119776624Y-109208641D01*
X119782771Y-109216562D01*
X119788332Y-109224884D01*
X119835951Y-109272503D01*
X119844272Y-109278063D01*
X119852194Y-109284211D01*
X119947432Y-109331830D01*
X119950451Y-109332656D01*
X119951465Y-109333670D01*
X119961292Y-109335624D01*
X119970953Y-109338270D01*
X119972311Y-109337817D01*
X119975383Y-109338428D01*
X119998199Y-109338428D01*
X119733705Y-109716278D01*
X119723887Y-109738601D01*
X119732200Y-109785707D01*
X119771389Y-109813139D01*
X119818495Y-109804826D01*
X119836109Y-109787960D01*
X120150781Y-109338428D01*
X120293835Y-109338428D01*
X120293835Y-109752119D01*
X120298593Y-109776037D01*
X120332417Y-109809861D01*
X120380253Y-109809861D01*
X120414077Y-109776037D01*
X120418835Y-109752119D01*
X120418835Y-108752119D01*
X120770025Y-108752119D01*
X120770025Y-109752119D01*
X120774783Y-109776037D01*
X120808607Y-109809861D01*
X120856443Y-109809861D01*
X120890267Y-109776037D01*
X120895025Y-109752119D01*
X120895025Y-108752119D01*
X120890267Y-108728201D01*
X121155736Y-108728201D01*
X121155736Y-108776037D01*
X121189560Y-108809861D01*
X121213478Y-108814619D01*
X121627168Y-108814619D01*
X121627168Y-109165809D01*
X121356335Y-109165809D01*
X121332417Y-109170567D01*
X121298593Y-109204391D01*
X121298593Y-109252227D01*
X121332417Y-109286051D01*
X121356335Y-109290809D01*
X121627168Y-109290809D01*
X121627168Y-109752119D01*
X121631926Y-109776037D01*
X121665750Y-109809861D01*
X121713586Y-109809861D01*
X121747410Y-109776037D01*
X121752168Y-109752119D01*
X121752168Y-108752119D01*
X121747410Y-108728201D01*
X121713586Y-108694377D01*
X121689668Y-108689619D01*
X121213478Y-108689619D01*
X121189560Y-108694377D01*
X121155736Y-108728201D01*
X120890267Y-108728201D01*
X120856443Y-108694377D01*
X120808607Y-108694377D01*
X120774783Y-108728201D01*
X120770025Y-108752119D01*
X120418835Y-108752119D01*
X120414077Y-108728201D01*
X120380253Y-108694377D01*
X120356335Y-108689619D01*
X119975383Y-108689619D01*
X119972311Y-108690229D01*
X119970953Y-108689777D01*
X119961292Y-108692422D01*
X119951465Y-108694377D01*
X119950451Y-108695390D01*
X119947432Y-108696217D01*
X119852194Y-108743836D01*
X119844272Y-108749983D01*
X119835951Y-108755544D01*
X119788332Y-108803163D01*
X119782771Y-108811484D01*
X119776624Y-108819406D01*
X119729005Y-108914644D01*
X119728178Y-108917663D01*
X119727165Y-108918677D01*
X119725210Y-108928504D01*
X119722565Y-108938165D01*
X119723017Y-108939523D01*
X119722407Y-108942595D01*
X119418835Y-108942595D01*
X119418835Y-108752119D01*
X119414077Y-108728201D01*
X119380253Y-108694377D01*
X119356335Y-108689619D01*
X118880145Y-108689619D01*
X118856227Y-108694377D01*
X118822403Y-108728201D01*
X118516043Y-108728201D01*
X118495767Y-108707925D01*
X118475493Y-108694379D01*
X118475491Y-108694377D01*
X118427655Y-108694377D01*
X118427652Y-108694379D01*
X118407379Y-108707925D01*
X118359760Y-108755544D01*
X118346212Y-108775821D01*
X118346212Y-108778586D01*
X118344425Y-108780698D01*
X118341670Y-108804928D01*
X118230559Y-108804928D01*
X118230559Y-108578508D01*
X121863279Y-108578508D01*
X121863279Y-109925730D01*
G37*
D10*
G36*
X90429850Y-109557219D02*
G01*
X90307981Y-109557219D01*
X90202916Y-109522197D01*
X90135846Y-109455127D01*
X90100392Y-109384218D01*
X90058422Y-109216337D01*
X90058422Y-109098100D01*
X90100392Y-108930218D01*
X90135845Y-108859312D01*
X90202917Y-108792240D01*
X90307981Y-108757219D01*
X90429850Y-108757219D01*
X90429850Y-109557219D01*
G37*
G36*
X94979056Y-109868330D02*
G01*
X89747311Y-109868330D01*
X89747311Y-109085790D01*
X89858422Y-109085790D01*
X89858422Y-109228647D01*
X89858757Y-109232049D01*
X89858540Y-109233508D01*
X89859619Y-109240805D01*
X89860343Y-109248156D01*
X89860907Y-109249519D01*
X89861408Y-109252901D01*
X89909027Y-109443376D01*
X89909540Y-109444813D01*
X89909592Y-109445536D01*
X89912700Y-109453660D01*
X89915622Y-109461837D01*
X89916052Y-109462417D01*
X89916598Y-109463844D01*
X89964217Y-109559082D01*
X89969499Y-109567474D01*
X89970512Y-109569918D01*
X89972768Y-109572667D01*
X89974660Y-109575672D01*
X89976654Y-109577401D01*
X89982949Y-109585071D01*
X90078187Y-109680311D01*
X90093340Y-109692747D01*
X90096659Y-109694122D01*
X90099375Y-109696477D01*
X90117275Y-109704468D01*
X90260132Y-109752087D01*
X90269804Y-109754286D01*
X90272246Y-109755298D01*
X90275783Y-109755646D01*
X90279247Y-109756434D01*
X90281881Y-109756246D01*
X90291755Y-109757219D01*
X90529850Y-109757219D01*
X90549359Y-109755298D01*
X90585407Y-109740366D01*
X90612997Y-109712776D01*
X90627929Y-109676728D01*
X90629850Y-109657219D01*
X90629850Y-109637710D01*
X90765105Y-109637710D01*
X90765105Y-109676728D01*
X90780037Y-109712776D01*
X90807627Y-109740366D01*
X90843675Y-109755298D01*
X90863184Y-109757219D01*
X91339374Y-109757219D01*
X91358883Y-109755298D01*
X91394931Y-109740366D01*
X91422521Y-109712776D01*
X91437453Y-109676728D01*
X91439374Y-109657219D01*
X91439374Y-108657219D01*
X91437453Y-108637710D01*
X91669867Y-108637710D01*
X91669867Y-108676728D01*
X91684799Y-108712776D01*
X91712389Y-108740366D01*
X91748437Y-108755298D01*
X91767946Y-108757219D01*
X92144136Y-108757219D01*
X92144136Y-109033409D01*
X91910803Y-109033409D01*
X91891294Y-109035330D01*
X91855246Y-109050262D01*
X91827656Y-109077852D01*
X91812724Y-109113900D01*
X91812724Y-109152918D01*
X91827656Y-109188966D01*
X91855246Y-109216556D01*
X91891294Y-109231488D01*
X91910803Y-109233409D01*
X92144136Y-109233409D01*
X92144136Y-109557219D01*
X91767946Y-109557219D01*
X91748437Y-109559140D01*
X91712389Y-109574072D01*
X91684799Y-109601662D01*
X91669867Y-109637710D01*
X91669867Y-109676728D01*
X91684799Y-109712776D01*
X91712389Y-109740366D01*
X91748437Y-109755298D01*
X91767946Y-109757219D01*
X92244136Y-109757219D01*
X92263645Y-109755298D01*
X92299693Y-109740366D01*
X92327283Y-109712776D01*
X92342215Y-109676728D01*
X92344136Y-109657219D01*
X92344136Y-108657219D01*
X92620326Y-108657219D01*
X92620326Y-109657219D01*
X92622247Y-109676728D01*
X92637179Y-109712776D01*
X92664769Y-109740366D01*
X92700817Y-109755298D01*
X92739835Y-109755298D01*
X92775883Y-109740366D01*
X92803473Y-109712776D01*
X92818405Y-109676728D01*
X92820326Y-109657219D01*
X92820326Y-108657219D01*
X93096517Y-108657219D01*
X93096517Y-109657219D01*
X93098438Y-109676728D01*
X93113370Y-109712776D01*
X93140960Y-109740366D01*
X93177008Y-109755298D01*
X93216026Y-109755298D01*
X93252074Y-109740366D01*
X93279664Y-109712776D01*
X93294596Y-109676728D01*
X93296517Y-109657219D01*
X93296517Y-109233409D01*
X93667945Y-109233409D01*
X93667945Y-109657219D01*
X93669866Y-109676728D01*
X93684798Y-109712776D01*
X93712388Y-109740366D01*
X93748436Y-109755298D01*
X93787454Y-109755298D01*
X93823502Y-109740366D01*
X93851092Y-109712776D01*
X93866024Y-109676728D01*
X93867945Y-109657219D01*
X93867945Y-109371504D01*
X94096517Y-109371504D01*
X94096517Y-109466742D01*
X94098438Y-109486251D01*
X94099813Y-109489571D01*
X94100068Y-109493155D01*
X94107074Y-109511463D01*
X94154693Y-109606701D01*
X94159976Y-109615093D01*
X94160988Y-109617537D01*
X94163244Y-109620286D01*
X94165136Y-109623291D01*
X94167130Y-109625020D01*
X94173425Y-109632690D01*
X94221043Y-109680310D01*
X94228711Y-109686603D01*
X94230443Y-109688600D01*
X94233451Y-109690493D01*
X94236197Y-109692747D01*
X94238637Y-109693757D01*
X94247034Y-109699043D01*
X94342271Y-109746662D01*
X94360580Y-109753668D01*
X94364163Y-109753922D01*
X94367484Y-109755298D01*
X94386993Y-109757219D01*
X94625088Y-109757219D01*
X94634961Y-109756246D01*
X94637595Y-109756434D01*
X94641058Y-109755646D01*
X94644597Y-109755298D01*
X94647039Y-109754286D01*
X94656711Y-109752087D01*
X94799567Y-109704468D01*
X94817468Y-109696477D01*
X94846944Y-109670912D01*
X94864393Y-109636013D01*
X94867160Y-109597093D01*
X94854821Y-109560077D01*
X94829256Y-109530601D01*
X94794357Y-109513151D01*
X94755437Y-109510385D01*
X94736322Y-109514732D01*
X94608861Y-109557219D01*
X94410600Y-109557219D01*
X94350990Y-109527414D01*
X94326323Y-109502746D01*
X94296517Y-109443134D01*
X94296517Y-109395111D01*
X94326322Y-109335501D01*
X94350990Y-109310832D01*
X94421897Y-109275379D01*
X94601722Y-109230423D01*
X94603159Y-109229909D01*
X94603882Y-109229858D01*
X94612006Y-109226749D01*
X94620183Y-109223828D01*
X94620763Y-109223397D01*
X94622190Y-109222852D01*
X94717428Y-109175233D01*
X94725824Y-109169947D01*
X94728264Y-109168937D01*
X94731010Y-109166683D01*
X94734018Y-109164790D01*
X94735747Y-109162795D01*
X94743418Y-109156501D01*
X94791036Y-109108882D01*
X94797328Y-109101215D01*
X94799326Y-109099483D01*
X94801219Y-109096474D01*
X94803473Y-109093729D01*
X94804483Y-109091288D01*
X94809769Y-109082892D01*
X94857388Y-108987655D01*
X94864394Y-108969346D01*
X94864648Y-108965762D01*
X94866024Y-108962442D01*
X94867945Y-108942933D01*
X94867945Y-108847695D01*
X94866024Y-108828186D01*
X94864648Y-108824865D01*
X94864394Y-108821282D01*
X94857388Y-108802973D01*
X94809769Y-108707736D01*
X94804483Y-108699339D01*
X94803473Y-108696899D01*
X94801219Y-108694153D01*
X94799326Y-108691145D01*
X94797328Y-108689412D01*
X94791036Y-108681746D01*
X94743418Y-108634127D01*
X94735747Y-108627832D01*
X94734018Y-108625838D01*
X94731010Y-108623944D01*
X94728264Y-108621691D01*
X94725824Y-108620680D01*
X94717428Y-108615395D01*
X94622190Y-108567776D01*
X94603882Y-108560770D01*
X94600298Y-108560515D01*
X94596978Y-108559140D01*
X94577469Y-108557219D01*
X94339374Y-108557219D01*
X94329500Y-108558191D01*
X94326866Y-108558004D01*
X94323402Y-108558791D01*
X94319865Y-108559140D01*
X94317423Y-108560151D01*
X94307751Y-108562351D01*
X94164894Y-108609970D01*
X94146994Y-108617961D01*
X94117518Y-108643526D01*
X94100068Y-108678425D01*
X94097302Y-108717345D01*
X94109640Y-108754361D01*
X94135205Y-108783837D01*
X94170104Y-108801287D01*
X94209024Y-108804053D01*
X94228140Y-108799706D01*
X94355600Y-108757219D01*
X94553862Y-108757219D01*
X94613471Y-108787024D01*
X94638140Y-108811692D01*
X94667945Y-108871302D01*
X94667945Y-108919326D01*
X94638140Y-108978935D01*
X94613471Y-109003603D01*
X94542564Y-109039057D01*
X94362739Y-109084014D01*
X94361300Y-109084527D01*
X94360580Y-109084579D01*
X94352455Y-109087687D01*
X94344279Y-109090609D01*
X94343699Y-109091038D01*
X94342271Y-109091585D01*
X94247034Y-109139204D01*
X94238637Y-109144489D01*
X94236197Y-109145500D01*
X94233451Y-109147753D01*
X94230443Y-109149647D01*
X94228710Y-109151644D01*
X94221044Y-109157937D01*
X94173425Y-109205555D01*
X94167130Y-109213225D01*
X94165136Y-109214955D01*
X94163242Y-109217962D01*
X94160989Y-109220709D01*
X94159978Y-109223148D01*
X94154693Y-109231545D01*
X94107074Y-109326783D01*
X94100068Y-109345091D01*
X94099813Y-109348674D01*
X94098438Y-109351995D01*
X94096517Y-109371504D01*
X93867945Y-109371504D01*
X93867945Y-108657219D01*
X93866024Y-108637710D01*
X93851092Y-108601662D01*
X93823502Y-108574072D01*
X93787454Y-108559140D01*
X93748436Y-108559140D01*
X93712388Y-108574072D01*
X93684798Y-108601662D01*
X93669866Y-108637710D01*
X93667945Y-108657219D01*
X93667945Y-109033409D01*
X93296517Y-109033409D01*
X93296517Y-108657219D01*
X93294596Y-108637710D01*
X93279664Y-108601662D01*
X93252074Y-108574072D01*
X93216026Y-108559140D01*
X93177008Y-108559140D01*
X93140960Y-108574072D01*
X93113370Y-108601662D01*
X93098438Y-108637710D01*
X93096517Y-108657219D01*
X92820326Y-108657219D01*
X92818405Y-108637710D01*
X92803473Y-108601662D01*
X92775883Y-108574072D01*
X92739835Y-108559140D01*
X92700817Y-108559140D01*
X92664769Y-108574072D01*
X92637179Y-108601662D01*
X92622247Y-108637710D01*
X92620326Y-108657219D01*
X92344136Y-108657219D01*
X92342215Y-108637710D01*
X92327283Y-108601662D01*
X92299693Y-108574072D01*
X92263645Y-108559140D01*
X92244136Y-108557219D01*
X91767946Y-108557219D01*
X91748437Y-108559140D01*
X91712389Y-108574072D01*
X91684799Y-108601662D01*
X91669867Y-108637710D01*
X91437453Y-108637710D01*
X91422521Y-108601662D01*
X91394931Y-108574072D01*
X91358883Y-108559140D01*
X91319865Y-108559140D01*
X91283817Y-108574072D01*
X91256227Y-108601662D01*
X91241295Y-108637710D01*
X91239374Y-108657219D01*
X91239374Y-109557219D01*
X90863184Y-109557219D01*
X90843675Y-109559140D01*
X90807627Y-109574072D01*
X90780037Y-109601662D01*
X90765105Y-109637710D01*
X90629850Y-109637710D01*
X90629850Y-108657219D01*
X90627929Y-108637710D01*
X90612997Y-108601662D01*
X90585407Y-108574072D01*
X90549359Y-108559140D01*
X90529850Y-108557219D01*
X90291755Y-108557219D01*
X90281881Y-108558191D01*
X90279247Y-108558004D01*
X90275783Y-108558791D01*
X90272246Y-108559140D01*
X90269804Y-108560151D01*
X90260132Y-108562351D01*
X90117275Y-108609970D01*
X90099375Y-108617961D01*
X90096659Y-108620316D01*
X90093341Y-108621691D01*
X90078187Y-108634127D01*
X89982949Y-108729365D01*
X89976654Y-108737035D01*
X89974660Y-108738765D01*
X89972766Y-108741772D01*
X89970513Y-108744519D01*
X89969502Y-108746958D01*
X89964217Y-108755355D01*
X89916598Y-108850593D01*
X89916052Y-108852019D01*
X89915622Y-108852600D01*
X89912700Y-108860776D01*
X89909592Y-108868901D01*
X89909540Y-108869623D01*
X89909027Y-108871061D01*
X89861408Y-109061536D01*
X89860907Y-109064917D01*
X89860343Y-109066281D01*
X89859619Y-109073631D01*
X89858540Y-109080929D01*
X89858757Y-109082387D01*
X89858422Y-109085790D01*
X89747311Y-109085790D01*
X89747311Y-108446108D01*
X94979056Y-108446108D01*
X94979056Y-109868330D01*
G37*
G36*
X92521089Y-65797023D02*
G01*
X92585268Y-65861202D01*
X92623183Y-66012861D01*
X92623183Y-66321575D01*
X92585267Y-66473235D01*
X92521091Y-66537413D01*
X92461481Y-66567219D01*
X92318219Y-66567219D01*
X92258609Y-66537414D01*
X92194432Y-66473236D01*
X92156517Y-66321575D01*
X92156517Y-66012862D01*
X92194432Y-65861202D01*
X92258611Y-65797023D01*
X92318219Y-65767219D01*
X92461481Y-65767219D01*
X92521089Y-65797023D01*
G37*
G36*
X96242231Y-66567219D02*
G01*
X96120362Y-66567219D01*
X96015297Y-66532197D01*
X95948227Y-66465127D01*
X95912773Y-66394218D01*
X95870803Y-66226337D01*
X95870803Y-66108100D01*
X95912773Y-65940218D01*
X95948226Y-65869312D01*
X96015298Y-65802240D01*
X96120362Y-65767219D01*
X96242231Y-65767219D01*
X96242231Y-66567219D01*
G37*
G36*
X93575564Y-66091028D02*
G01*
X93318219Y-66091028D01*
X93258609Y-66061223D01*
X93233941Y-66036554D01*
X93204136Y-65976944D01*
X93204136Y-65881302D01*
X93233941Y-65821692D01*
X93258609Y-65797023D01*
X93318219Y-65767219D01*
X93575564Y-65767219D01*
X93575564Y-66091028D01*
G37*
G36*
X98839056Y-66878330D02*
G01*
X90990184Y-66878330D01*
X90990184Y-65647710D01*
X91101295Y-65647710D01*
X91101295Y-65686728D01*
X91116227Y-65722776D01*
X91143817Y-65750366D01*
X91179865Y-65765298D01*
X91199374Y-65767219D01*
X91385088Y-65767219D01*
X91385088Y-66667219D01*
X91387009Y-66686728D01*
X91401941Y-66722776D01*
X91429531Y-66750366D01*
X91465579Y-66765298D01*
X91504597Y-66765298D01*
X91540645Y-66750366D01*
X91568235Y-66722776D01*
X91583167Y-66686728D01*
X91585088Y-66667219D01*
X91585088Y-66000552D01*
X91956517Y-66000552D01*
X91956517Y-66333885D01*
X91956852Y-66337287D01*
X91956635Y-66338746D01*
X91957714Y-66346043D01*
X91958438Y-66353394D01*
X91959002Y-66354757D01*
X91959503Y-66358139D01*
X92007122Y-66548614D01*
X92013717Y-66567075D01*
X92018142Y-66573047D01*
X92020988Y-66579918D01*
X92033425Y-66595071D01*
X92128663Y-66690311D01*
X92136331Y-66696604D01*
X92138062Y-66698600D01*
X92141069Y-66700493D01*
X92143816Y-66702747D01*
X92146256Y-66703757D01*
X92154653Y-66709043D01*
X92249890Y-66756662D01*
X92268199Y-66763668D01*
X92271782Y-66763922D01*
X92275103Y-66765298D01*
X92294612Y-66767219D01*
X92485088Y-66767219D01*
X92504597Y-66765298D01*
X92507917Y-66763922D01*
X92511501Y-66763668D01*
X92529809Y-66756662D01*
X92625047Y-66709043D01*
X92633442Y-66703758D01*
X92635884Y-66702747D01*
X92638631Y-66700491D01*
X92641637Y-66698600D01*
X92643367Y-66696605D01*
X92651037Y-66690310D01*
X92746275Y-66595071D01*
X92758712Y-66579918D01*
X92761557Y-66573047D01*
X92765983Y-66567075D01*
X92772578Y-66548615D01*
X92820197Y-66358139D01*
X92820697Y-66354757D01*
X92821262Y-66353394D01*
X92821985Y-66346043D01*
X92823065Y-66338746D01*
X92822847Y-66337287D01*
X92823183Y-66333885D01*
X92823183Y-66000552D01*
X92822847Y-65997149D01*
X92823065Y-65995691D01*
X92821985Y-65988393D01*
X92821262Y-65981043D01*
X92820697Y-65979679D01*
X92820197Y-65976298D01*
X92790546Y-65857695D01*
X93004136Y-65857695D01*
X93004136Y-66000552D01*
X93006057Y-66020061D01*
X93007432Y-66023381D01*
X93007687Y-66026965D01*
X93014693Y-66045273D01*
X93062312Y-66140511D01*
X93067597Y-66148907D01*
X93068608Y-66151347D01*
X93070861Y-66154093D01*
X93072755Y-66157101D01*
X93074749Y-66158830D01*
X93081044Y-66166501D01*
X93128663Y-66214119D01*
X93136329Y-66220411D01*
X93138062Y-66222409D01*
X93141070Y-66224302D01*
X93143816Y-66226556D01*
X93146256Y-66227566D01*
X93154653Y-66232852D01*
X93249890Y-66280471D01*
X93268199Y-66287477D01*
X93271782Y-66287731D01*
X93275103Y-66289107D01*
X93294612Y-66291028D01*
X93575564Y-66291028D01*
X93575564Y-66667219D01*
X93577485Y-66686728D01*
X93592417Y-66722776D01*
X93620007Y-66750366D01*
X93656055Y-66765298D01*
X93695073Y-66765298D01*
X93731121Y-66750366D01*
X93758711Y-66722776D01*
X93773643Y-66686728D01*
X93775564Y-66667219D01*
X93775564Y-65667219D01*
X93773643Y-65647710D01*
X94767962Y-65647710D01*
X94767962Y-65686728D01*
X94782894Y-65722776D01*
X94810484Y-65750366D01*
X94846532Y-65765298D01*
X94866041Y-65767219D01*
X95242231Y-65767219D01*
X95242231Y-66043409D01*
X95008898Y-66043409D01*
X94989389Y-66045330D01*
X94953341Y-66060262D01*
X94925751Y-66087852D01*
X94910819Y-66123900D01*
X94910819Y-66162918D01*
X94925751Y-66198966D01*
X94953341Y-66226556D01*
X94989389Y-66241488D01*
X95008898Y-66243409D01*
X95242231Y-66243409D01*
X95242231Y-66567219D01*
X94866041Y-66567219D01*
X94846532Y-66569140D01*
X94810484Y-66584072D01*
X94782894Y-66611662D01*
X94767962Y-66647710D01*
X94767962Y-66686728D01*
X94782894Y-66722776D01*
X94810484Y-66750366D01*
X94846532Y-66765298D01*
X94866041Y-66767219D01*
X95342231Y-66767219D01*
X95361740Y-66765298D01*
X95397788Y-66750366D01*
X95425378Y-66722776D01*
X95440310Y-66686728D01*
X95442231Y-66667219D01*
X95442231Y-66095790D01*
X95670803Y-66095790D01*
X95670803Y-66238647D01*
X95671138Y-66242049D01*
X95670921Y-66243508D01*
X95672000Y-66250805D01*
X95672724Y-66258156D01*
X95673288Y-66259519D01*
X95673789Y-66262901D01*
X95721408Y-66453376D01*
X95721921Y-66454813D01*
X95721973Y-66455536D01*
X95725081Y-66463660D01*
X95728003Y-66471837D01*
X95728433Y-66472417D01*
X95728979Y-66473844D01*
X95776598Y-66569082D01*
X95781880Y-66577474D01*
X95782893Y-66579918D01*
X95785149Y-66582667D01*
X95787041Y-66585672D01*
X95789035Y-66587401D01*
X95795330Y-66595071D01*
X95890568Y-66690311D01*
X95905721Y-66702747D01*
X95909040Y-66704122D01*
X95911756Y-66706477D01*
X95929656Y-66714468D01*
X96072513Y-66762087D01*
X96082185Y-66764286D01*
X96084627Y-66765298D01*
X96088164Y-66765646D01*
X96091628Y-66766434D01*
X96094262Y-66766246D01*
X96104136Y-66767219D01*
X96342231Y-66767219D01*
X96361740Y-66765298D01*
X96397788Y-66750366D01*
X96425378Y-66722776D01*
X96440310Y-66686728D01*
X96442231Y-66667219D01*
X96442231Y-65667219D01*
X96718421Y-65667219D01*
X96718421Y-66667219D01*
X96720342Y-66686728D01*
X96735274Y-66722776D01*
X96762864Y-66750366D01*
X96798912Y-66765298D01*
X96837930Y-66765298D01*
X96873978Y-66750366D01*
X96901568Y-66722776D01*
X96916500Y-66686728D01*
X96918421Y-66667219D01*
X96918421Y-66647710D01*
X97053676Y-66647710D01*
X97053676Y-66686728D01*
X97068608Y-66722776D01*
X97096198Y-66750366D01*
X97132246Y-66765298D01*
X97151755Y-66767219D01*
X97627945Y-66767219D01*
X97647454Y-66765298D01*
X97683502Y-66750366D01*
X97711092Y-66722776D01*
X97726024Y-66686728D01*
X97727945Y-66667219D01*
X97727945Y-66381504D01*
X97956517Y-66381504D01*
X97956517Y-66476742D01*
X97958438Y-66496251D01*
X97959813Y-66499571D01*
X97960068Y-66503155D01*
X97967074Y-66521463D01*
X98014693Y-66616701D01*
X98019976Y-66625093D01*
X98020988Y-66627537D01*
X98023244Y-66630286D01*
X98025136Y-66633291D01*
X98027130Y-66635020D01*
X98033425Y-66642690D01*
X98081043Y-66690310D01*
X98088711Y-66696603D01*
X98090443Y-66698600D01*
X98093451Y-66700493D01*
X98096197Y-66702747D01*
X98098637Y-66703757D01*
X98107034Y-66709043D01*
X98202271Y-66756662D01*
X98220580Y-66763668D01*
X98224163Y-66763922D01*
X98227484Y-66765298D01*
X98246993Y-66767219D01*
X98485088Y-66767219D01*
X98494961Y-66766246D01*
X98497595Y-66766434D01*
X98501058Y-66765646D01*
X98504597Y-66765298D01*
X98507039Y-66764286D01*
X98516711Y-66762087D01*
X98659567Y-66714468D01*
X98677468Y-66706477D01*
X98706944Y-66680912D01*
X98724393Y-66646013D01*
X98727160Y-66607093D01*
X98714821Y-66570077D01*
X98689256Y-66540601D01*
X98654357Y-66523151D01*
X98615437Y-66520385D01*
X98596322Y-66524732D01*
X98468861Y-66567219D01*
X98270600Y-66567219D01*
X98210990Y-66537414D01*
X98186323Y-66512746D01*
X98156517Y-66453134D01*
X98156517Y-66405111D01*
X98186322Y-66345501D01*
X98210990Y-66320832D01*
X98281897Y-66285379D01*
X98461722Y-66240423D01*
X98463159Y-66239909D01*
X98463882Y-66239858D01*
X98472006Y-66236749D01*
X98480183Y-66233828D01*
X98480763Y-66233397D01*
X98482190Y-66232852D01*
X98577428Y-66185233D01*
X98585824Y-66179947D01*
X98588264Y-66178937D01*
X98591010Y-66176683D01*
X98594018Y-66174790D01*
X98595747Y-66172795D01*
X98603418Y-66166501D01*
X98651036Y-66118882D01*
X98657328Y-66111215D01*
X98659326Y-66109483D01*
X98661219Y-66106474D01*
X98663473Y-66103729D01*
X98664483Y-66101288D01*
X98669769Y-66092892D01*
X98717388Y-65997655D01*
X98724394Y-65979346D01*
X98724648Y-65975762D01*
X98726024Y-65972442D01*
X98727945Y-65952933D01*
X98727945Y-65857695D01*
X98726024Y-65838186D01*
X98724648Y-65834865D01*
X98724394Y-65831282D01*
X98717388Y-65812973D01*
X98669769Y-65717736D01*
X98664483Y-65709339D01*
X98663473Y-65706899D01*
X98661219Y-65704153D01*
X98659326Y-65701145D01*
X98657328Y-65699412D01*
X98651036Y-65691746D01*
X98603418Y-65644127D01*
X98595747Y-65637832D01*
X98594018Y-65635838D01*
X98591010Y-65633944D01*
X98588264Y-65631691D01*
X98585824Y-65630680D01*
X98577428Y-65625395D01*
X98482190Y-65577776D01*
X98463882Y-65570770D01*
X98460298Y-65570515D01*
X98456978Y-65569140D01*
X98437469Y-65567219D01*
X98199374Y-65567219D01*
X98189500Y-65568191D01*
X98186866Y-65568004D01*
X98183402Y-65568791D01*
X98179865Y-65569140D01*
X98177423Y-65570151D01*
X98167751Y-65572351D01*
X98024894Y-65619970D01*
X98006994Y-65627961D01*
X97977518Y-65653526D01*
X97960068Y-65688425D01*
X97957302Y-65727345D01*
X97969640Y-65764361D01*
X97995205Y-65793837D01*
X98030104Y-65811287D01*
X98069024Y-65814053D01*
X98088140Y-65809706D01*
X98215600Y-65767219D01*
X98413862Y-65767219D01*
X98473471Y-65797024D01*
X98498140Y-65821692D01*
X98527945Y-65881302D01*
X98527945Y-65929326D01*
X98498140Y-65988935D01*
X98473471Y-66013603D01*
X98402564Y-66049057D01*
X98222739Y-66094014D01*
X98221300Y-66094527D01*
X98220580Y-66094579D01*
X98212455Y-66097687D01*
X98204279Y-66100609D01*
X98203699Y-66101038D01*
X98202271Y-66101585D01*
X98107034Y-66149204D01*
X98098637Y-66154489D01*
X98096197Y-66155500D01*
X98093451Y-66157753D01*
X98090443Y-66159647D01*
X98088710Y-66161644D01*
X98081044Y-66167937D01*
X98033425Y-66215555D01*
X98027130Y-66223225D01*
X98025136Y-66224955D01*
X98023242Y-66227962D01*
X98020989Y-66230709D01*
X98019978Y-66233148D01*
X98014693Y-66241545D01*
X97967074Y-66336783D01*
X97960068Y-66355091D01*
X97959813Y-66358674D01*
X97958438Y-66361995D01*
X97956517Y-66381504D01*
X97727945Y-66381504D01*
X97727945Y-65667219D01*
X97726024Y-65647710D01*
X97711092Y-65611662D01*
X97683502Y-65584072D01*
X97647454Y-65569140D01*
X97608436Y-65569140D01*
X97572388Y-65584072D01*
X97544798Y-65611662D01*
X97529866Y-65647710D01*
X97527945Y-65667219D01*
X97527945Y-66567219D01*
X97151755Y-66567219D01*
X97132246Y-66569140D01*
X97096198Y-66584072D01*
X97068608Y-66611662D01*
X97053676Y-66647710D01*
X96918421Y-66647710D01*
X96918421Y-65667219D01*
X96916500Y-65647710D01*
X96901568Y-65611662D01*
X96873978Y-65584072D01*
X96837930Y-65569140D01*
X96798912Y-65569140D01*
X96762864Y-65584072D01*
X96735274Y-65611662D01*
X96720342Y-65647710D01*
X96718421Y-65667219D01*
X96442231Y-65667219D01*
X96440310Y-65647710D01*
X96425378Y-65611662D01*
X96397788Y-65584072D01*
X96361740Y-65569140D01*
X96342231Y-65567219D01*
X96104136Y-65567219D01*
X96094262Y-65568191D01*
X96091628Y-65568004D01*
X96088164Y-65568791D01*
X96084627Y-65569140D01*
X96082185Y-65570151D01*
X96072513Y-65572351D01*
X95929656Y-65619970D01*
X95911756Y-65627961D01*
X95909040Y-65630316D01*
X95905722Y-65631691D01*
X95890568Y-65644127D01*
X95795330Y-65739365D01*
X95789035Y-65747035D01*
X95787041Y-65748765D01*
X95785147Y-65751772D01*
X95782894Y-65754519D01*
X95781883Y-65756958D01*
X95776598Y-65765355D01*
X95728979Y-65860593D01*
X95728433Y-65862019D01*
X95728003Y-65862600D01*
X95725081Y-65870776D01*
X95721973Y-65878901D01*
X95721921Y-65879623D01*
X95721408Y-65881061D01*
X95673789Y-66071536D01*
X95673288Y-66074917D01*
X95672724Y-66076281D01*
X95672000Y-66083631D01*
X95670921Y-66090929D01*
X95671138Y-66092387D01*
X95670803Y-66095790D01*
X95442231Y-66095790D01*
X95442231Y-65667219D01*
X95440310Y-65647710D01*
X95425378Y-65611662D01*
X95397788Y-65584072D01*
X95361740Y-65569140D01*
X95342231Y-65567219D01*
X94866041Y-65567219D01*
X94846532Y-65569140D01*
X94810484Y-65584072D01*
X94782894Y-65611662D01*
X94767962Y-65647710D01*
X93773643Y-65647710D01*
X93758711Y-65611662D01*
X93731121Y-65584072D01*
X93695073Y-65569140D01*
X93675564Y-65567219D01*
X93294612Y-65567219D01*
X93275103Y-65569140D01*
X93271782Y-65570515D01*
X93268199Y-65570770D01*
X93249890Y-65577776D01*
X93154653Y-65625395D01*
X93146256Y-65630680D01*
X93143816Y-65631691D01*
X93141070Y-65633944D01*
X93138062Y-65635838D01*
X93136329Y-65637835D01*
X93128663Y-65644128D01*
X93081044Y-65691746D01*
X93074749Y-65699416D01*
X93072755Y-65701146D01*
X93070861Y-65704153D01*
X93068608Y-65706900D01*
X93067597Y-65709339D01*
X93062312Y-65717736D01*
X93014693Y-65812974D01*
X93007687Y-65831282D01*
X93007432Y-65834865D01*
X93006057Y-65838186D01*
X93004136Y-65857695D01*
X92790546Y-65857695D01*
X92772578Y-65785822D01*
X92765983Y-65767362D01*
X92761556Y-65761387D01*
X92758711Y-65754519D01*
X92746275Y-65739365D01*
X92651037Y-65644127D01*
X92643366Y-65637832D01*
X92641637Y-65635838D01*
X92638629Y-65633944D01*
X92635883Y-65631691D01*
X92633443Y-65630680D01*
X92625047Y-65625395D01*
X92529809Y-65577776D01*
X92511501Y-65570770D01*
X92507917Y-65570515D01*
X92504597Y-65569140D01*
X92485088Y-65567219D01*
X92294612Y-65567219D01*
X92275103Y-65569140D01*
X92271782Y-65570515D01*
X92268199Y-65570770D01*
X92249890Y-65577776D01*
X92154653Y-65625395D01*
X92146254Y-65630681D01*
X92143817Y-65631691D01*
X92141073Y-65633942D01*
X92138062Y-65635838D01*
X92136329Y-65637835D01*
X92128663Y-65644127D01*
X92033425Y-65739365D01*
X92020989Y-65754519D01*
X92018143Y-65761387D01*
X92013717Y-65767362D01*
X92007122Y-65785823D01*
X91959503Y-65976298D01*
X91959002Y-65979679D01*
X91958438Y-65981043D01*
X91957714Y-65988393D01*
X91956635Y-65995691D01*
X91956852Y-65997149D01*
X91956517Y-66000552D01*
X91585088Y-66000552D01*
X91585088Y-65767219D01*
X91770802Y-65767219D01*
X91790311Y-65765298D01*
X91826359Y-65750366D01*
X91853949Y-65722776D01*
X91868881Y-65686728D01*
X91868881Y-65647710D01*
X91853949Y-65611662D01*
X91826359Y-65584072D01*
X91790311Y-65569140D01*
X91770802Y-65567219D01*
X91199374Y-65567219D01*
X91179865Y-65569140D01*
X91143817Y-65584072D01*
X91116227Y-65611662D01*
X91101295Y-65647710D01*
X90990184Y-65647710D01*
X90990184Y-65456108D01*
X98839056Y-65456108D01*
X98839056Y-66878330D01*
G37*
G36*
X129381837Y-34884976D02*
G01*
X129452746Y-34920431D01*
X129477414Y-34945098D01*
X129507219Y-35004708D01*
X129507219Y-35052732D01*
X129477414Y-35112341D01*
X129452746Y-35137008D01*
X129381837Y-35172463D01*
X129213956Y-35214434D01*
X129000480Y-35214434D01*
X128832599Y-35172463D01*
X128761692Y-35137010D01*
X128737024Y-35112341D01*
X128707219Y-35052731D01*
X128707219Y-35004708D01*
X128737024Y-34945098D01*
X128761692Y-34920429D01*
X128832599Y-34884976D01*
X129000480Y-34843006D01*
X129213956Y-34843006D01*
X129381837Y-34884976D01*
G37*
G36*
X129818330Y-35525545D02*
G01*
X128396108Y-35525545D01*
X128396108Y-34981101D01*
X128507219Y-34981101D01*
X128507219Y-35076339D01*
X128509140Y-35095848D01*
X128510515Y-35099168D01*
X128510770Y-35102752D01*
X128517776Y-35121060D01*
X128565395Y-35216298D01*
X128570680Y-35224694D01*
X128571691Y-35227134D01*
X128573944Y-35229880D01*
X128575838Y-35232888D01*
X128577832Y-35234617D01*
X128584127Y-35242288D01*
X128631746Y-35289906D01*
X128639412Y-35296198D01*
X128641145Y-35298196D01*
X128644153Y-35300089D01*
X128646899Y-35302343D01*
X128649339Y-35303353D01*
X128657736Y-35308639D01*
X128752973Y-35356258D01*
X128754401Y-35356804D01*
X128754981Y-35357234D01*
X128763157Y-35360155D01*
X128771282Y-35363264D01*
X128772002Y-35363315D01*
X128773441Y-35363829D01*
X128963917Y-35411448D01*
X128967298Y-35411948D01*
X128968662Y-35412513D01*
X128976012Y-35413236D01*
X128983310Y-35414316D01*
X128984768Y-35414098D01*
X128988171Y-35414434D01*
X129226266Y-35414434D01*
X129229668Y-35414098D01*
X129231127Y-35414316D01*
X129238424Y-35413236D01*
X129245775Y-35412513D01*
X129247138Y-35411948D01*
X129250520Y-35411448D01*
X129440995Y-35363829D01*
X129442432Y-35363315D01*
X129443155Y-35363264D01*
X129451279Y-35360155D01*
X129459456Y-35357234D01*
X129460036Y-35356803D01*
X129461463Y-35356258D01*
X129556701Y-35308639D01*
X129565093Y-35303355D01*
X129567537Y-35302344D01*
X129570286Y-35300087D01*
X129573291Y-35298196D01*
X129575020Y-35296201D01*
X129582690Y-35289907D01*
X129630310Y-35242289D01*
X129636603Y-35234620D01*
X129638600Y-35232889D01*
X129640493Y-35229880D01*
X129642747Y-35227135D01*
X129643757Y-35224694D01*
X129649043Y-35216298D01*
X129696662Y-35121061D01*
X129703668Y-35102752D01*
X129703922Y-35099168D01*
X129705298Y-35095848D01*
X129707219Y-35076339D01*
X129707219Y-34981101D01*
X129705298Y-34961592D01*
X129703922Y-34958271D01*
X129703668Y-34954688D01*
X129696662Y-34936379D01*
X129649043Y-34841142D01*
X129643757Y-34832745D01*
X129642747Y-34830305D01*
X129640493Y-34827559D01*
X129638600Y-34824551D01*
X129636603Y-34822819D01*
X129630310Y-34815151D01*
X129582690Y-34767533D01*
X129575020Y-34761238D01*
X129573291Y-34759244D01*
X129570286Y-34757352D01*
X129567537Y-34755096D01*
X129565093Y-34754084D01*
X129556701Y-34748801D01*
X129461463Y-34701182D01*
X129460036Y-34700636D01*
X129459456Y-34700206D01*
X129451279Y-34697284D01*
X129443155Y-34694176D01*
X129442432Y-34694124D01*
X129440995Y-34693611D01*
X129250520Y-34645992D01*
X129247138Y-34645491D01*
X129245775Y-34644927D01*
X129238424Y-34644203D01*
X129231127Y-34643124D01*
X129229668Y-34643341D01*
X129226266Y-34643006D01*
X128988171Y-34643006D01*
X128984768Y-34643341D01*
X128983310Y-34643124D01*
X128976012Y-34644203D01*
X128968662Y-34644927D01*
X128967298Y-34645491D01*
X128963917Y-34645992D01*
X128773441Y-34693611D01*
X128772002Y-34694124D01*
X128771282Y-34694176D01*
X128763157Y-34697284D01*
X128754981Y-34700206D01*
X128754401Y-34700635D01*
X128752973Y-34701182D01*
X128657736Y-34748801D01*
X128649339Y-34754086D01*
X128646899Y-34755097D01*
X128644153Y-34757350D01*
X128641145Y-34759244D01*
X128639412Y-34761241D01*
X128631746Y-34767534D01*
X128584127Y-34815152D01*
X128577832Y-34822822D01*
X128575838Y-34824552D01*
X128573944Y-34827559D01*
X128571691Y-34830306D01*
X128570680Y-34832745D01*
X128565395Y-34841142D01*
X128517776Y-34936380D01*
X128510770Y-34954688D01*
X128510515Y-34958271D01*
X128509140Y-34961592D01*
X128507219Y-34981101D01*
X128396108Y-34981101D01*
X128396108Y-34294926D01*
X129413901Y-34294926D01*
X129413901Y-34333944D01*
X129415385Y-34337527D01*
X129428832Y-34369992D01*
X129428833Y-34369993D01*
X129441270Y-34385146D01*
X129488890Y-34432765D01*
X129504043Y-34445202D01*
X129529533Y-34455759D01*
X129540091Y-34460133D01*
X129540092Y-34460133D01*
X129579109Y-34460133D01*
X129600226Y-34451385D01*
X129615158Y-34445201D01*
X129615162Y-34445196D01*
X129630311Y-34432765D01*
X129677929Y-34385146D01*
X129690366Y-34369993D01*
X129701735Y-34342545D01*
X129705298Y-34333944D01*
X129705298Y-34294926D01*
X129690366Y-34258878D01*
X129690366Y-34258877D01*
X129677929Y-34243724D01*
X129630311Y-34196105D01*
X129615162Y-34183673D01*
X129615158Y-34183669D01*
X129600226Y-34177484D01*
X129579109Y-34168737D01*
X129540091Y-34168737D01*
X129529533Y-34173110D01*
X129504043Y-34183668D01*
X129488890Y-34196105D01*
X129441270Y-34243724D01*
X129428833Y-34258877D01*
X129428832Y-34258878D01*
X129418274Y-34284368D01*
X129413901Y-34294926D01*
X128396108Y-34294926D01*
X128396108Y-33457292D01*
X128507219Y-33457292D01*
X128507219Y-33695387D01*
X128509140Y-33714896D01*
X128510515Y-33718216D01*
X128510770Y-33721800D01*
X128517776Y-33740108D01*
X128565395Y-33835346D01*
X128570680Y-33843742D01*
X128571691Y-33846182D01*
X128573944Y-33848928D01*
X128575838Y-33851936D01*
X128577832Y-33853665D01*
X128584127Y-33861336D01*
X128631746Y-33908954D01*
X128639412Y-33915246D01*
X128641145Y-33917244D01*
X128644153Y-33919137D01*
X128646899Y-33921391D01*
X128649339Y-33922401D01*
X128657736Y-33927687D01*
X128752973Y-33975306D01*
X128771282Y-33982312D01*
X128774865Y-33982566D01*
X128778186Y-33983942D01*
X128797695Y-33985863D01*
X128892933Y-33985863D01*
X128902806Y-33984890D01*
X128905440Y-33985078D01*
X128908903Y-33984290D01*
X128912442Y-33983942D01*
X128914884Y-33982930D01*
X128924556Y-33980731D01*
X129067412Y-33933112D01*
X129085313Y-33925121D01*
X129088028Y-33922765D01*
X129091347Y-33921391D01*
X129106501Y-33908955D01*
X129507219Y-33508237D01*
X129507219Y-33885863D01*
X129509140Y-33905372D01*
X129524072Y-33941420D01*
X129551662Y-33969010D01*
X129587710Y-33983942D01*
X129626728Y-33983942D01*
X129662776Y-33969010D01*
X129690366Y-33941420D01*
X129705298Y-33905372D01*
X129707219Y-33885863D01*
X129707219Y-33266816D01*
X129705298Y-33247307D01*
X129690366Y-33211259D01*
X129662776Y-33183669D01*
X129626728Y-33168737D01*
X129587710Y-33168737D01*
X129551662Y-33183669D01*
X129536508Y-33196105D01*
X128981770Y-33750841D01*
X128876706Y-33785863D01*
X128821302Y-33785863D01*
X128761692Y-33756058D01*
X128737024Y-33731389D01*
X128707219Y-33671779D01*
X128707219Y-33480899D01*
X128737024Y-33421289D01*
X128773167Y-33385146D01*
X128785604Y-33369993D01*
X128800535Y-33333944D01*
X128800535Y-33294926D01*
X128785604Y-33258878D01*
X128758014Y-33231288D01*
X128721966Y-33216357D01*
X128682948Y-33216357D01*
X128646899Y-33231288D01*
X128631746Y-33243725D01*
X128584127Y-33291343D01*
X128577832Y-33299013D01*
X128575838Y-33300743D01*
X128573944Y-33303750D01*
X128571691Y-33306497D01*
X128570680Y-33308936D01*
X128565395Y-33317333D01*
X128517776Y-33412571D01*
X128510770Y-33430879D01*
X128510515Y-33434462D01*
X128509140Y-33437783D01*
X128507219Y-33457292D01*
X128396108Y-33457292D01*
X128396108Y-32647663D01*
X128507219Y-32647663D01*
X128509140Y-32657373D01*
X128509140Y-32667277D01*
X128512889Y-32676329D01*
X128514791Y-32685940D01*
X128520283Y-32694178D01*
X128524072Y-32703325D01*
X128530998Y-32710251D01*
X128536434Y-32718405D01*
X128544662Y-32723915D01*
X128551662Y-32730915D01*
X128560713Y-32734664D01*
X128568854Y-32740116D01*
X128578561Y-32742057D01*
X128587710Y-32745847D01*
X128607012Y-32747747D01*
X128607114Y-32747768D01*
X128607148Y-32747761D01*
X128607219Y-32747768D01*
X129507219Y-32747768D01*
X129507219Y-32933482D01*
X129509140Y-32952991D01*
X129524072Y-32989039D01*
X129551662Y-33016629D01*
X129587710Y-33031561D01*
X129626728Y-33031561D01*
X129662776Y-33016629D01*
X129690366Y-32989039D01*
X129705298Y-32952991D01*
X129707219Y-32933482D01*
X129707219Y-32362054D01*
X129705298Y-32342545D01*
X129690366Y-32306497D01*
X129662776Y-32278907D01*
X129626728Y-32263975D01*
X129587710Y-32263975D01*
X129551662Y-32278907D01*
X129524072Y-32306497D01*
X129509140Y-32342545D01*
X129507219Y-32362054D01*
X129507219Y-32547768D01*
X128896260Y-32547768D01*
X128916025Y-32528003D01*
X128922316Y-32520336D01*
X128924314Y-32518604D01*
X128926209Y-32515592D01*
X128928461Y-32512849D01*
X128929470Y-32510411D01*
X128934757Y-32502013D01*
X128982376Y-32406776D01*
X128989382Y-32388467D01*
X128992148Y-32349547D01*
X128979809Y-32312531D01*
X128954244Y-32283054D01*
X128919346Y-32265605D01*
X128880426Y-32262840D01*
X128843410Y-32275178D01*
X128813933Y-32300743D01*
X128803490Y-32317333D01*
X128763129Y-32398055D01*
X128686365Y-32474819D01*
X128551749Y-32564563D01*
X128551694Y-32564607D01*
X128551662Y-32564621D01*
X128551588Y-32564694D01*
X128536582Y-32576983D01*
X128531071Y-32585211D01*
X128524072Y-32592211D01*
X128520322Y-32601262D01*
X128514871Y-32609403D01*
X128512929Y-32619110D01*
X128509140Y-32628259D01*
X128509140Y-32638058D01*
X128507219Y-32647663D01*
X128396108Y-32647663D01*
X128396108Y-32151729D01*
X129818330Y-32151729D01*
X129818330Y-35525545D01*
G37*
G36*
X124431837Y-34302595D02*
G01*
X124502746Y-34338050D01*
X124527414Y-34362717D01*
X124557219Y-34422327D01*
X124557219Y-34470351D01*
X124527414Y-34529960D01*
X124502746Y-34554627D01*
X124431837Y-34590082D01*
X124263956Y-34632053D01*
X124050480Y-34632053D01*
X123882599Y-34590082D01*
X123811692Y-34554629D01*
X123787024Y-34529960D01*
X123757219Y-34470350D01*
X123757219Y-34422327D01*
X123787024Y-34362717D01*
X123811692Y-34338048D01*
X123882599Y-34302595D01*
X124050480Y-34260625D01*
X124263956Y-34260625D01*
X124431837Y-34302595D01*
G37*
G36*
X124502746Y-32861860D02*
G01*
X124527414Y-32886527D01*
X124557219Y-32946137D01*
X124557219Y-33089399D01*
X124527414Y-33149008D01*
X124502746Y-33173675D01*
X124443135Y-33203482D01*
X124252254Y-33203482D01*
X124192644Y-33173677D01*
X124167976Y-33149008D01*
X124138171Y-33089398D01*
X124138171Y-32946137D01*
X124167976Y-32886527D01*
X124192644Y-32861858D01*
X124252254Y-32832054D01*
X124443135Y-32832054D01*
X124502746Y-32861860D01*
G37*
G36*
X124868330Y-34943164D02*
G01*
X123446108Y-34943164D01*
X123446108Y-34398720D01*
X123557219Y-34398720D01*
X123557219Y-34493958D01*
X123559140Y-34513467D01*
X123560515Y-34516787D01*
X123560770Y-34520371D01*
X123567776Y-34538679D01*
X123615395Y-34633917D01*
X123620680Y-34642313D01*
X123621691Y-34644753D01*
X123623944Y-34647499D01*
X123625838Y-34650507D01*
X123627832Y-34652236D01*
X123634127Y-34659907D01*
X123681746Y-34707525D01*
X123689412Y-34713817D01*
X123691145Y-34715815D01*
X123694153Y-34717708D01*
X123696899Y-34719962D01*
X123699339Y-34720972D01*
X123707736Y-34726258D01*
X123802973Y-34773877D01*
X123804401Y-34774423D01*
X123804981Y-34774853D01*
X123813157Y-34777774D01*
X123821282Y-34780883D01*
X123822002Y-34780934D01*
X123823441Y-34781448D01*
X124013917Y-34829067D01*
X124017298Y-34829567D01*
X124018662Y-34830132D01*
X124026012Y-34830855D01*
X124033310Y-34831935D01*
X124034768Y-34831717D01*
X124038171Y-34832053D01*
X124276266Y-34832053D01*
X124279668Y-34831717D01*
X124281127Y-34831935D01*
X124288424Y-34830855D01*
X124295775Y-34830132D01*
X124297138Y-34829567D01*
X124300520Y-34829067D01*
X124490995Y-34781448D01*
X124492432Y-34780934D01*
X124493155Y-34780883D01*
X124501279Y-34777774D01*
X124509456Y-34774853D01*
X124510036Y-34774422D01*
X124511463Y-34773877D01*
X124606701Y-34726258D01*
X124615093Y-34720974D01*
X124617537Y-34719963D01*
X124620286Y-34717706D01*
X124623291Y-34715815D01*
X124625020Y-34713820D01*
X124632690Y-34707526D01*
X124680310Y-34659908D01*
X124686603Y-34652239D01*
X124688600Y-34650508D01*
X124690493Y-34647499D01*
X124692747Y-34644754D01*
X124693757Y-34642313D01*
X124699043Y-34633917D01*
X124746662Y-34538680D01*
X124753668Y-34520371D01*
X124753922Y-34516787D01*
X124755298Y-34513467D01*
X124757219Y-34493958D01*
X124757219Y-34398720D01*
X124755298Y-34379211D01*
X124753922Y-34375890D01*
X124753668Y-34372307D01*
X124746662Y-34353998D01*
X124699043Y-34258761D01*
X124693757Y-34250364D01*
X124692747Y-34247924D01*
X124690493Y-34245178D01*
X124688600Y-34242170D01*
X124686603Y-34240438D01*
X124680310Y-34232770D01*
X124632690Y-34185152D01*
X124625020Y-34178857D01*
X124623291Y-34176863D01*
X124620286Y-34174971D01*
X124617537Y-34172715D01*
X124615093Y-34171703D01*
X124606701Y-34166420D01*
X124511463Y-34118801D01*
X124510036Y-34118255D01*
X124509456Y-34117825D01*
X124501279Y-34114903D01*
X124493155Y-34111795D01*
X124492432Y-34111743D01*
X124490995Y-34111230D01*
X124300520Y-34063611D01*
X124297138Y-34063110D01*
X124295775Y-34062546D01*
X124288424Y-34061822D01*
X124281127Y-34060743D01*
X124279668Y-34060960D01*
X124276266Y-34060625D01*
X124038171Y-34060625D01*
X124034768Y-34060960D01*
X124033310Y-34060743D01*
X124026012Y-34061822D01*
X124018662Y-34062546D01*
X124017298Y-34063110D01*
X124013917Y-34063611D01*
X123823441Y-34111230D01*
X123822002Y-34111743D01*
X123821282Y-34111795D01*
X123813157Y-34114903D01*
X123804981Y-34117825D01*
X123804401Y-34118254D01*
X123802973Y-34118801D01*
X123707736Y-34166420D01*
X123699339Y-34171705D01*
X123696899Y-34172716D01*
X123694153Y-34174969D01*
X123691145Y-34176863D01*
X123689412Y-34178860D01*
X123681746Y-34185153D01*
X123634127Y-34232771D01*
X123627832Y-34240441D01*
X123625838Y-34242171D01*
X123623944Y-34245178D01*
X123621691Y-34247925D01*
X123620680Y-34250364D01*
X123615395Y-34258761D01*
X123567776Y-34353999D01*
X123560770Y-34372307D01*
X123560515Y-34375890D01*
X123559140Y-34379211D01*
X123557219Y-34398720D01*
X123446108Y-34398720D01*
X123446108Y-33712545D01*
X124463901Y-33712545D01*
X124463901Y-33751563D01*
X124465385Y-33755146D01*
X124478832Y-33787611D01*
X124478833Y-33787612D01*
X124491270Y-33802765D01*
X124538890Y-33850384D01*
X124554043Y-33862821D01*
X124579533Y-33873378D01*
X124590091Y-33877752D01*
X124590092Y-33877752D01*
X124629109Y-33877752D01*
X124650226Y-33869004D01*
X124665158Y-33862820D01*
X124665162Y-33862815D01*
X124680311Y-33850384D01*
X124727929Y-33802765D01*
X124740366Y-33787612D01*
X124751735Y-33760164D01*
X124755298Y-33751563D01*
X124755298Y-33712545D01*
X124740366Y-33676497D01*
X124740366Y-33676496D01*
X124727929Y-33661343D01*
X124680311Y-33613724D01*
X124665162Y-33601292D01*
X124665158Y-33601288D01*
X124650226Y-33595103D01*
X124629109Y-33586356D01*
X124590091Y-33586356D01*
X124579533Y-33590729D01*
X124554043Y-33601287D01*
X124538890Y-33613724D01*
X124491270Y-33661343D01*
X124478833Y-33676496D01*
X124478832Y-33676497D01*
X124468274Y-33701987D01*
X124463901Y-33712545D01*
X123446108Y-33712545D01*
X123446108Y-33017768D01*
X123557219Y-33017768D01*
X123557219Y-33208244D01*
X123559140Y-33227753D01*
X123574072Y-33263801D01*
X123601662Y-33291391D01*
X123637710Y-33306323D01*
X123676728Y-33306323D01*
X123712776Y-33291391D01*
X123740366Y-33263801D01*
X123755298Y-33227753D01*
X123757219Y-33208244D01*
X123757219Y-33041375D01*
X123787024Y-32981765D01*
X123816165Y-32952623D01*
X123936372Y-32872485D01*
X123953534Y-32868195D01*
X123948728Y-32877809D01*
X123941722Y-32896117D01*
X123941467Y-32899700D01*
X123940092Y-32903021D01*
X123938171Y-32922530D01*
X123938171Y-33113006D01*
X123940092Y-33132515D01*
X123941467Y-33135835D01*
X123941722Y-33139419D01*
X123948728Y-33157727D01*
X123996347Y-33252965D01*
X124001632Y-33261361D01*
X124002643Y-33263801D01*
X124004896Y-33266547D01*
X124006790Y-33269555D01*
X124008784Y-33271284D01*
X124015079Y-33278955D01*
X124062698Y-33326573D01*
X124070364Y-33332865D01*
X124072097Y-33334863D01*
X124075105Y-33336756D01*
X124077851Y-33339010D01*
X124080291Y-33340020D01*
X124088688Y-33345306D01*
X124183925Y-33392925D01*
X124202234Y-33399931D01*
X124205817Y-33400185D01*
X124209138Y-33401561D01*
X124228647Y-33403482D01*
X124466742Y-33403482D01*
X124486251Y-33401561D01*
X124489571Y-33400185D01*
X124493155Y-33399931D01*
X124511463Y-33392925D01*
X124606701Y-33345306D01*
X124615093Y-33340022D01*
X124617537Y-33339011D01*
X124620286Y-33336754D01*
X124623291Y-33334863D01*
X124625020Y-33332868D01*
X124632690Y-33326574D01*
X124680310Y-33278956D01*
X124686603Y-33271287D01*
X124688600Y-33269556D01*
X124690493Y-33266547D01*
X124692747Y-33263802D01*
X124693757Y-33261361D01*
X124699043Y-33252965D01*
X124746662Y-33157728D01*
X124753668Y-33139419D01*
X124753922Y-33135835D01*
X124755298Y-33132515D01*
X124757219Y-33113006D01*
X124757219Y-32922530D01*
X124755298Y-32903021D01*
X124753922Y-32899700D01*
X124753668Y-32896117D01*
X124746662Y-32877808D01*
X124699043Y-32782571D01*
X124693757Y-32774174D01*
X124692747Y-32771734D01*
X124690493Y-32768988D01*
X124688600Y-32765980D01*
X124686603Y-32764248D01*
X124680310Y-32756580D01*
X124632690Y-32708962D01*
X124625020Y-32702667D01*
X124623291Y-32700673D01*
X124620286Y-32698781D01*
X124617537Y-32696525D01*
X124615093Y-32695513D01*
X124606701Y-32690230D01*
X124511463Y-32642611D01*
X124493155Y-32635605D01*
X124489571Y-32635350D01*
X124486251Y-32633975D01*
X124466742Y-32632054D01*
X124085790Y-32632054D01*
X124082387Y-32632389D01*
X124080929Y-32632172D01*
X124073631Y-32633251D01*
X124066281Y-32633975D01*
X124064917Y-32634539D01*
X124061536Y-32635040D01*
X123871060Y-32682659D01*
X123859565Y-32686765D01*
X123857142Y-32687245D01*
X123854945Y-32688415D01*
X123852600Y-32689254D01*
X123850613Y-32690725D01*
X123839844Y-32696468D01*
X123696987Y-32791706D01*
X123696933Y-32791749D01*
X123696899Y-32791764D01*
X123689413Y-32797908D01*
X123681820Y-32804126D01*
X123681798Y-32804157D01*
X123681746Y-32804201D01*
X123634127Y-32851819D01*
X123627832Y-32859489D01*
X123625838Y-32861219D01*
X123623944Y-32864226D01*
X123621691Y-32866973D01*
X123620680Y-32869412D01*
X123615395Y-32877809D01*
X123567776Y-32973047D01*
X123560770Y-32991355D01*
X123560515Y-32994938D01*
X123559140Y-32998259D01*
X123557219Y-33017768D01*
X123446108Y-33017768D01*
X123446108Y-32520943D01*
X124868330Y-32520943D01*
X124868330Y-34943164D01*
G37*
G36*
X119481837Y-39192595D02*
G01*
X119552746Y-39228050D01*
X119577414Y-39252717D01*
X119607219Y-39312327D01*
X119607219Y-39360351D01*
X119577414Y-39419960D01*
X119552746Y-39444627D01*
X119481837Y-39480082D01*
X119313956Y-39522053D01*
X119100480Y-39522053D01*
X118932599Y-39480082D01*
X118861692Y-39444629D01*
X118837024Y-39419960D01*
X118807219Y-39360350D01*
X118807219Y-39312327D01*
X118837024Y-39252717D01*
X118861692Y-39228048D01*
X118932599Y-39192595D01*
X119100480Y-39150625D01*
X119313956Y-39150625D01*
X119481837Y-39192595D01*
G37*
G36*
X119918330Y-39833164D02*
G01*
X118496108Y-39833164D01*
X118496108Y-39288720D01*
X118607219Y-39288720D01*
X118607219Y-39383958D01*
X118609140Y-39403467D01*
X118610515Y-39406787D01*
X118610770Y-39410371D01*
X118617776Y-39428679D01*
X118665395Y-39523917D01*
X118670680Y-39532313D01*
X118671691Y-39534753D01*
X118673944Y-39537499D01*
X118675838Y-39540507D01*
X118677832Y-39542236D01*
X118684127Y-39549907D01*
X118731746Y-39597525D01*
X118739412Y-39603817D01*
X118741145Y-39605815D01*
X118744153Y-39607708D01*
X118746899Y-39609962D01*
X118749339Y-39610972D01*
X118757736Y-39616258D01*
X118852973Y-39663877D01*
X118854401Y-39664423D01*
X118854981Y-39664853D01*
X118863157Y-39667774D01*
X118871282Y-39670883D01*
X118872002Y-39670934D01*
X118873441Y-39671448D01*
X119063917Y-39719067D01*
X119067298Y-39719567D01*
X119068662Y-39720132D01*
X119076012Y-39720855D01*
X119083310Y-39721935D01*
X119084768Y-39721717D01*
X119088171Y-39722053D01*
X119326266Y-39722053D01*
X119329668Y-39721717D01*
X119331127Y-39721935D01*
X119338424Y-39720855D01*
X119345775Y-39720132D01*
X119347138Y-39719567D01*
X119350520Y-39719067D01*
X119540995Y-39671448D01*
X119542432Y-39670934D01*
X119543155Y-39670883D01*
X119551279Y-39667774D01*
X119559456Y-39664853D01*
X119560036Y-39664422D01*
X119561463Y-39663877D01*
X119656701Y-39616258D01*
X119665093Y-39610974D01*
X119667537Y-39609963D01*
X119670286Y-39607706D01*
X119673291Y-39605815D01*
X119675020Y-39603820D01*
X119682690Y-39597526D01*
X119730310Y-39549908D01*
X119736603Y-39542239D01*
X119738600Y-39540508D01*
X119740493Y-39537499D01*
X119742747Y-39534754D01*
X119743757Y-39532313D01*
X119749043Y-39523917D01*
X119796662Y-39428680D01*
X119803668Y-39410371D01*
X119803922Y-39406787D01*
X119805298Y-39403467D01*
X119807219Y-39383958D01*
X119807219Y-39288720D01*
X119805298Y-39269211D01*
X119803922Y-39265890D01*
X119803668Y-39262307D01*
X119796662Y-39243998D01*
X119749043Y-39148761D01*
X119743757Y-39140364D01*
X119742747Y-39137924D01*
X119740493Y-39135178D01*
X119738600Y-39132170D01*
X119736603Y-39130438D01*
X119730310Y-39122770D01*
X119682690Y-39075152D01*
X119675020Y-39068857D01*
X119673291Y-39066863D01*
X119670286Y-39064971D01*
X119667537Y-39062715D01*
X119665093Y-39061703D01*
X119656701Y-39056420D01*
X119561463Y-39008801D01*
X119560036Y-39008255D01*
X119559456Y-39007825D01*
X119551279Y-39004903D01*
X119543155Y-39001795D01*
X119542432Y-39001743D01*
X119540995Y-39001230D01*
X119350520Y-38953611D01*
X119347138Y-38953110D01*
X119345775Y-38952546D01*
X119338424Y-38951822D01*
X119331127Y-38950743D01*
X119329668Y-38950960D01*
X119326266Y-38950625D01*
X119088171Y-38950625D01*
X119084768Y-38950960D01*
X119083310Y-38950743D01*
X119076012Y-38951822D01*
X119068662Y-38952546D01*
X119067298Y-38953110D01*
X119063917Y-38953611D01*
X118873441Y-39001230D01*
X118872002Y-39001743D01*
X118871282Y-39001795D01*
X118863157Y-39004903D01*
X118854981Y-39007825D01*
X118854401Y-39008254D01*
X118852973Y-39008801D01*
X118757736Y-39056420D01*
X118749339Y-39061705D01*
X118746899Y-39062716D01*
X118744153Y-39064969D01*
X118741145Y-39066863D01*
X118739412Y-39068860D01*
X118731746Y-39075153D01*
X118684127Y-39122771D01*
X118677832Y-39130441D01*
X118675838Y-39132171D01*
X118673944Y-39135178D01*
X118671691Y-39137925D01*
X118670680Y-39140364D01*
X118665395Y-39148761D01*
X118617776Y-39243999D01*
X118610770Y-39262307D01*
X118610515Y-39265890D01*
X118609140Y-39269211D01*
X118607219Y-39288720D01*
X118496108Y-39288720D01*
X118496108Y-38602545D01*
X119513901Y-38602545D01*
X119513901Y-38641563D01*
X119515385Y-38645146D01*
X119528832Y-38677611D01*
X119528833Y-38677612D01*
X119541270Y-38692765D01*
X119588890Y-38740384D01*
X119604043Y-38752821D01*
X119629533Y-38763378D01*
X119640091Y-38767752D01*
X119640092Y-38767752D01*
X119679109Y-38767752D01*
X119700226Y-38759004D01*
X119715158Y-38752820D01*
X119715162Y-38752815D01*
X119730311Y-38740384D01*
X119777929Y-38692765D01*
X119790366Y-38677612D01*
X119801735Y-38650164D01*
X119805298Y-38641563D01*
X119805298Y-38602545D01*
X119790366Y-38566497D01*
X119790366Y-38566496D01*
X119777929Y-38551343D01*
X119730311Y-38503724D01*
X119715162Y-38491292D01*
X119715158Y-38491288D01*
X119700226Y-38485103D01*
X119679109Y-38476356D01*
X119640091Y-38476356D01*
X119629533Y-38480729D01*
X119604043Y-38491287D01*
X119588890Y-38503724D01*
X119541270Y-38551343D01*
X119528833Y-38566496D01*
X119528832Y-38566497D01*
X119518274Y-38591987D01*
X119513901Y-38602545D01*
X118496108Y-38602545D01*
X118496108Y-37574435D01*
X118607219Y-37574435D01*
X118607219Y-38193482D01*
X118608234Y-38203799D01*
X118608060Y-38206424D01*
X118608671Y-38208231D01*
X118609140Y-38212991D01*
X118615355Y-38227996D01*
X118620560Y-38243385D01*
X118622781Y-38245924D01*
X118624072Y-38249039D01*
X118635556Y-38260523D01*
X118646254Y-38272749D01*
X118649277Y-38274244D01*
X118651662Y-38276629D01*
X118666668Y-38282845D01*
X118681229Y-38290046D01*
X118684594Y-38290270D01*
X118687710Y-38291561D01*
X118703958Y-38291561D01*
X118720161Y-38292641D01*
X118723354Y-38291561D01*
X118726728Y-38291561D01*
X118741733Y-38285345D01*
X118757122Y-38280141D01*
X118761012Y-38277359D01*
X118762776Y-38276629D01*
X118764635Y-38274769D01*
X118773069Y-38268740D01*
X119006923Y-38064117D01*
X119046347Y-38142965D01*
X119051632Y-38151361D01*
X119052643Y-38153801D01*
X119054896Y-38156547D01*
X119056790Y-38159555D01*
X119058784Y-38161284D01*
X119065079Y-38168955D01*
X119112698Y-38216573D01*
X119120364Y-38222865D01*
X119122097Y-38224863D01*
X119125105Y-38226756D01*
X119127851Y-38229010D01*
X119130291Y-38230020D01*
X119138688Y-38235306D01*
X119233925Y-38282925D01*
X119252234Y-38289931D01*
X119255817Y-38290185D01*
X119259138Y-38291561D01*
X119278647Y-38293482D01*
X119516742Y-38293482D01*
X119536251Y-38291561D01*
X119539571Y-38290185D01*
X119543155Y-38289931D01*
X119561463Y-38282925D01*
X119656701Y-38235306D01*
X119665093Y-38230022D01*
X119667537Y-38229011D01*
X119670286Y-38226754D01*
X119673291Y-38224863D01*
X119675020Y-38222868D01*
X119682690Y-38216574D01*
X119730310Y-38168956D01*
X119736603Y-38161287D01*
X119738600Y-38159556D01*
X119740493Y-38156547D01*
X119742747Y-38153802D01*
X119743757Y-38151361D01*
X119749043Y-38142965D01*
X119796662Y-38047728D01*
X119803668Y-38029419D01*
X119803922Y-38025835D01*
X119805298Y-38022515D01*
X119807219Y-38003006D01*
X119807219Y-37717292D01*
X119805298Y-37697783D01*
X119803922Y-37694462D01*
X119803668Y-37690879D01*
X119796662Y-37672570D01*
X119749043Y-37577333D01*
X119743757Y-37568936D01*
X119742747Y-37566496D01*
X119740493Y-37563750D01*
X119738600Y-37560742D01*
X119736603Y-37559010D01*
X119730310Y-37551342D01*
X119682690Y-37503724D01*
X119667537Y-37491287D01*
X119631488Y-37476356D01*
X119592470Y-37476357D01*
X119556422Y-37491288D01*
X119528832Y-37518878D01*
X119513901Y-37554927D01*
X119513902Y-37593945D01*
X119528833Y-37629993D01*
X119541270Y-37645146D01*
X119577414Y-37681289D01*
X119607219Y-37740899D01*
X119607219Y-37979399D01*
X119577414Y-38039008D01*
X119552746Y-38063675D01*
X119493135Y-38093482D01*
X119302254Y-38093482D01*
X119242644Y-38063677D01*
X119217976Y-38039008D01*
X119188171Y-37979398D01*
X119188171Y-37860149D01*
X119187155Y-37849831D01*
X119187330Y-37847207D01*
X119186718Y-37845399D01*
X119186250Y-37840640D01*
X119180035Y-37825636D01*
X119174830Y-37810245D01*
X119172607Y-37807705D01*
X119171318Y-37804592D01*
X119159840Y-37793114D01*
X119149136Y-37780881D01*
X119146111Y-37779385D01*
X119143728Y-37777002D01*
X119128726Y-37770787D01*
X119114161Y-37763585D01*
X119110795Y-37763360D01*
X119107680Y-37762070D01*
X119091432Y-37762070D01*
X119075229Y-37760990D01*
X119072036Y-37762070D01*
X119068662Y-37762070D01*
X119053656Y-37768285D01*
X119038268Y-37773490D01*
X119034377Y-37776271D01*
X119032614Y-37777002D01*
X119030754Y-37778861D01*
X119022321Y-37784891D01*
X118807219Y-37973105D01*
X118807219Y-37574435D01*
X118805298Y-37554926D01*
X118790366Y-37518878D01*
X118762776Y-37491288D01*
X118726728Y-37476356D01*
X118687710Y-37476356D01*
X118651662Y-37491288D01*
X118624072Y-37518878D01*
X118609140Y-37554926D01*
X118607219Y-37574435D01*
X118496108Y-37574435D01*
X118496108Y-37365245D01*
X119918330Y-37365245D01*
X119918330Y-39833164D01*
G37*
G36*
X115118330Y-34573164D02*
G01*
X113696108Y-34573164D01*
X113696108Y-33838244D01*
X113807219Y-33838244D01*
X113807219Y-34314434D01*
X113809140Y-34333943D01*
X113824072Y-34369991D01*
X113851662Y-34397581D01*
X113887710Y-34412513D01*
X113926728Y-34412513D01*
X113962776Y-34397581D01*
X113990366Y-34369991D01*
X114005298Y-34333943D01*
X114007219Y-34314434D01*
X114007219Y-33928743D01*
X114191491Y-33910315D01*
X114191467Y-33910652D01*
X114190092Y-33913973D01*
X114188171Y-33933482D01*
X114188171Y-34171577D01*
X114190092Y-34191086D01*
X114191467Y-34194406D01*
X114191722Y-34197990D01*
X114198728Y-34216298D01*
X114246347Y-34311536D01*
X114251632Y-34319932D01*
X114252643Y-34322372D01*
X114254896Y-34325118D01*
X114256790Y-34328126D01*
X114258784Y-34329855D01*
X114265079Y-34337526D01*
X114312698Y-34385144D01*
X114320364Y-34391436D01*
X114322097Y-34393434D01*
X114325105Y-34395327D01*
X114327851Y-34397581D01*
X114330291Y-34398591D01*
X114338688Y-34403877D01*
X114433925Y-34451496D01*
X114452234Y-34458502D01*
X114455817Y-34458756D01*
X114459138Y-34460132D01*
X114478647Y-34462053D01*
X114716742Y-34462053D01*
X114736251Y-34460132D01*
X114739571Y-34458756D01*
X114743155Y-34458502D01*
X114761463Y-34451496D01*
X114856701Y-34403877D01*
X114865093Y-34398593D01*
X114867537Y-34397582D01*
X114870286Y-34395325D01*
X114873291Y-34393434D01*
X114875020Y-34391439D01*
X114882690Y-34385145D01*
X114930310Y-34337527D01*
X114936603Y-34329858D01*
X114938600Y-34328127D01*
X114940493Y-34325118D01*
X114942747Y-34322373D01*
X114943757Y-34319932D01*
X114949043Y-34311536D01*
X114996662Y-34216299D01*
X115003668Y-34197990D01*
X115003922Y-34194406D01*
X115005298Y-34191086D01*
X115007219Y-34171577D01*
X115007219Y-33933482D01*
X115005298Y-33913973D01*
X115003922Y-33910652D01*
X115003668Y-33907069D01*
X114996662Y-33888760D01*
X114949043Y-33793523D01*
X114943757Y-33785126D01*
X114942747Y-33782686D01*
X114940493Y-33779940D01*
X114938600Y-33776932D01*
X114936603Y-33775200D01*
X114930310Y-33767532D01*
X114882690Y-33719914D01*
X114867537Y-33707477D01*
X114831488Y-33692546D01*
X114792470Y-33692547D01*
X114756422Y-33707478D01*
X114728832Y-33735068D01*
X114713901Y-33771117D01*
X114713902Y-33810135D01*
X114728833Y-33846183D01*
X114741270Y-33861336D01*
X114777414Y-33897479D01*
X114807219Y-33957089D01*
X114807219Y-34147970D01*
X114777414Y-34207579D01*
X114752746Y-34232246D01*
X114693135Y-34262053D01*
X114502254Y-34262053D01*
X114442644Y-34232248D01*
X114417976Y-34207579D01*
X114388171Y-34147969D01*
X114388171Y-33957089D01*
X114417976Y-33897479D01*
X114454119Y-33861336D01*
X114466556Y-33846183D01*
X114468483Y-33841528D01*
X114471671Y-33837633D01*
X114475893Y-33823639D01*
X114481487Y-33810134D01*
X114481487Y-33805100D01*
X114482942Y-33800278D01*
X114481487Y-33785726D01*
X114481487Y-33771116D01*
X114479561Y-33766466D01*
X114479060Y-33761454D01*
X114472148Y-33748570D01*
X114466556Y-33735068D01*
X114462995Y-33731507D01*
X114460615Y-33727070D01*
X114449302Y-33717814D01*
X114438966Y-33707478D01*
X114434313Y-33705550D01*
X114430417Y-33702363D01*
X114416422Y-33698140D01*
X114402918Y-33692547D01*
X114397884Y-33692547D01*
X114393062Y-33691092D01*
X114373459Y-33691121D01*
X113897269Y-33738740D01*
X113890160Y-33740165D01*
X113887710Y-33740165D01*
X113885412Y-33741116D01*
X113878048Y-33742593D01*
X113865167Y-33749502D01*
X113851662Y-33755097D01*
X113848101Y-33758657D01*
X113843664Y-33761038D01*
X113834408Y-33772350D01*
X113824072Y-33782687D01*
X113822144Y-33787339D01*
X113818957Y-33791236D01*
X113814736Y-33805225D01*
X113809140Y-33818735D01*
X113808403Y-33826212D01*
X113807686Y-33828591D01*
X113807929Y-33831027D01*
X113807219Y-33838244D01*
X113696108Y-33838244D01*
X113696108Y-33342545D01*
X114713901Y-33342545D01*
X114713901Y-33381563D01*
X114715385Y-33385146D01*
X114728832Y-33417611D01*
X114728833Y-33417612D01*
X114741270Y-33432765D01*
X114788890Y-33480384D01*
X114804043Y-33492821D01*
X114829533Y-33503378D01*
X114840091Y-33507752D01*
X114840092Y-33507752D01*
X114879109Y-33507752D01*
X114900226Y-33499004D01*
X114915158Y-33492820D01*
X114915162Y-33492815D01*
X114930311Y-33480384D01*
X114977929Y-33432765D01*
X114990366Y-33417612D01*
X115001735Y-33390164D01*
X115005298Y-33381563D01*
X115005298Y-33342545D01*
X114990366Y-33306497D01*
X114990366Y-33306496D01*
X114977929Y-33291343D01*
X114930311Y-33243724D01*
X114915162Y-33231292D01*
X114915158Y-33231288D01*
X114900226Y-33225103D01*
X114879109Y-33216356D01*
X114840091Y-33216356D01*
X114829533Y-33220729D01*
X114804043Y-33231287D01*
X114788890Y-33243724D01*
X114741270Y-33291343D01*
X114728833Y-33306496D01*
X114728832Y-33306497D01*
X114718274Y-33331987D01*
X114713901Y-33342545D01*
X113696108Y-33342545D01*
X113696108Y-32647663D01*
X113807219Y-32647663D01*
X113809140Y-32657373D01*
X113809140Y-32667277D01*
X113812889Y-32676329D01*
X113814791Y-32685940D01*
X113820283Y-32694178D01*
X113824072Y-32703325D01*
X113830998Y-32710251D01*
X113836434Y-32718405D01*
X113844662Y-32723915D01*
X113851662Y-32730915D01*
X113860713Y-32734664D01*
X113868854Y-32740116D01*
X113878561Y-32742057D01*
X113887710Y-32745847D01*
X113907012Y-32747747D01*
X113907114Y-32747768D01*
X113907148Y-32747761D01*
X113907219Y-32747768D01*
X114807219Y-32747768D01*
X114807219Y-32933482D01*
X114809140Y-32952991D01*
X114824072Y-32989039D01*
X114851662Y-33016629D01*
X114887710Y-33031561D01*
X114926728Y-33031561D01*
X114962776Y-33016629D01*
X114990366Y-32989039D01*
X115005298Y-32952991D01*
X115007219Y-32933482D01*
X115007219Y-32362054D01*
X115005298Y-32342545D01*
X114990366Y-32306497D01*
X114962776Y-32278907D01*
X114926728Y-32263975D01*
X114887710Y-32263975D01*
X114851662Y-32278907D01*
X114824072Y-32306497D01*
X114809140Y-32342545D01*
X114807219Y-32362054D01*
X114807219Y-32547768D01*
X114196260Y-32547768D01*
X114216025Y-32528003D01*
X114222316Y-32520336D01*
X114224314Y-32518604D01*
X114226209Y-32515592D01*
X114228461Y-32512849D01*
X114229470Y-32510411D01*
X114234757Y-32502013D01*
X114282376Y-32406776D01*
X114289382Y-32388467D01*
X114292148Y-32349547D01*
X114279809Y-32312531D01*
X114254244Y-32283054D01*
X114219346Y-32265605D01*
X114180426Y-32262840D01*
X114143410Y-32275178D01*
X114113933Y-32300743D01*
X114103490Y-32317333D01*
X114063129Y-32398055D01*
X113986365Y-32474819D01*
X113851749Y-32564563D01*
X113851694Y-32564607D01*
X113851662Y-32564621D01*
X113851588Y-32564694D01*
X113836582Y-32576983D01*
X113831071Y-32585211D01*
X113824072Y-32592211D01*
X113820322Y-32601262D01*
X113814871Y-32609403D01*
X113812929Y-32619110D01*
X113809140Y-32628259D01*
X113809140Y-32638058D01*
X113807219Y-32647663D01*
X113696108Y-32647663D01*
X113696108Y-32151729D01*
X115118330Y-32151729D01*
X115118330Y-34573164D01*
G37*
G36*
X109103237Y-32441024D02*
G01*
X109174146Y-32476479D01*
X109198814Y-32501146D01*
X109228619Y-32560756D01*
X109228619Y-32608780D01*
X109198814Y-32668389D01*
X109174146Y-32693056D01*
X109103237Y-32728511D01*
X108935356Y-32770482D01*
X108721880Y-32770482D01*
X108553999Y-32728511D01*
X108483092Y-32693058D01*
X108458424Y-32668389D01*
X108428619Y-32608779D01*
X108428619Y-32560756D01*
X108458424Y-32501146D01*
X108483092Y-32476477D01*
X108553999Y-32441024D01*
X108721880Y-32399054D01*
X108935356Y-32399054D01*
X109103237Y-32441024D01*
G37*
G36*
X109539730Y-35462545D02*
G01*
X108117508Y-35462545D01*
X108117508Y-34727625D01*
X108228619Y-34727625D01*
X108228619Y-35203815D01*
X108230540Y-35223324D01*
X108245472Y-35259372D01*
X108273062Y-35286962D01*
X108309110Y-35301894D01*
X108348128Y-35301894D01*
X108384176Y-35286962D01*
X108411766Y-35259372D01*
X108426698Y-35223324D01*
X108428619Y-35203815D01*
X108428619Y-34818124D01*
X108612891Y-34799696D01*
X108612867Y-34800033D01*
X108611492Y-34803354D01*
X108609571Y-34822863D01*
X108609571Y-35060958D01*
X108611492Y-35080467D01*
X108612867Y-35083787D01*
X108613122Y-35087371D01*
X108620128Y-35105679D01*
X108667747Y-35200917D01*
X108673032Y-35209313D01*
X108674043Y-35211753D01*
X108676296Y-35214499D01*
X108678190Y-35217507D01*
X108680184Y-35219236D01*
X108686479Y-35226907D01*
X108734098Y-35274525D01*
X108741764Y-35280817D01*
X108743497Y-35282815D01*
X108746505Y-35284708D01*
X108749251Y-35286962D01*
X108751691Y-35287972D01*
X108760088Y-35293258D01*
X108855325Y-35340877D01*
X108873634Y-35347883D01*
X108877217Y-35348137D01*
X108880538Y-35349513D01*
X108900047Y-35351434D01*
X109138142Y-35351434D01*
X109157651Y-35349513D01*
X109160971Y-35348137D01*
X109164555Y-35347883D01*
X109182863Y-35340877D01*
X109278101Y-35293258D01*
X109286493Y-35287974D01*
X109288937Y-35286963D01*
X109291686Y-35284706D01*
X109294691Y-35282815D01*
X109296420Y-35280820D01*
X109304090Y-35274526D01*
X109351710Y-35226908D01*
X109358003Y-35219239D01*
X109360000Y-35217508D01*
X109361893Y-35214499D01*
X109364147Y-35211754D01*
X109365157Y-35209313D01*
X109370443Y-35200917D01*
X109418062Y-35105680D01*
X109425068Y-35087371D01*
X109425322Y-35083787D01*
X109426698Y-35080467D01*
X109428619Y-35060958D01*
X109428619Y-34822863D01*
X109426698Y-34803354D01*
X109425322Y-34800033D01*
X109425068Y-34796450D01*
X109418062Y-34778141D01*
X109370443Y-34682904D01*
X109365157Y-34674507D01*
X109364147Y-34672067D01*
X109361893Y-34669321D01*
X109360000Y-34666313D01*
X109358003Y-34664581D01*
X109351710Y-34656913D01*
X109304090Y-34609295D01*
X109288937Y-34596858D01*
X109252888Y-34581927D01*
X109213870Y-34581928D01*
X109177822Y-34596859D01*
X109150232Y-34624449D01*
X109135301Y-34660498D01*
X109135302Y-34699516D01*
X109150233Y-34735564D01*
X109162670Y-34750717D01*
X109198814Y-34786860D01*
X109228619Y-34846470D01*
X109228619Y-35037351D01*
X109198814Y-35096960D01*
X109174146Y-35121627D01*
X109114535Y-35151434D01*
X108923654Y-35151434D01*
X108864044Y-35121629D01*
X108839376Y-35096960D01*
X108809571Y-35037350D01*
X108809571Y-34846470D01*
X108839376Y-34786860D01*
X108875519Y-34750717D01*
X108887956Y-34735564D01*
X108889883Y-34730909D01*
X108893071Y-34727014D01*
X108897293Y-34713020D01*
X108902887Y-34699515D01*
X108902887Y-34694481D01*
X108904342Y-34689659D01*
X108902887Y-34675107D01*
X108902887Y-34660497D01*
X108900961Y-34655847D01*
X108900460Y-34650835D01*
X108893548Y-34637951D01*
X108887956Y-34624449D01*
X108884395Y-34620888D01*
X108882015Y-34616451D01*
X108870702Y-34607195D01*
X108860366Y-34596859D01*
X108855713Y-34594931D01*
X108851817Y-34591744D01*
X108837822Y-34587521D01*
X108824318Y-34581928D01*
X108819284Y-34581928D01*
X108814462Y-34580473D01*
X108794859Y-34580502D01*
X108318669Y-34628121D01*
X108311560Y-34629546D01*
X108309110Y-34629546D01*
X108306812Y-34630497D01*
X108299448Y-34631974D01*
X108286567Y-34638883D01*
X108273062Y-34644478D01*
X108269501Y-34648038D01*
X108265064Y-34650419D01*
X108255808Y-34661731D01*
X108245472Y-34672068D01*
X108243544Y-34676720D01*
X108240357Y-34680617D01*
X108236136Y-34694606D01*
X108230540Y-34708116D01*
X108229803Y-34715593D01*
X108229086Y-34717972D01*
X108229329Y-34720408D01*
X108228619Y-34727625D01*
X108117508Y-34727625D01*
X108117508Y-33680006D01*
X108228619Y-33680006D01*
X108228619Y-34346672D01*
X108230540Y-34366181D01*
X108230777Y-34366754D01*
X108230785Y-34367376D01*
X108238251Y-34384797D01*
X108245472Y-34402229D01*
X108245909Y-34402666D01*
X108246155Y-34403239D01*
X108259703Y-34416460D01*
X108273062Y-34429819D01*
X108273636Y-34430056D01*
X108274080Y-34430490D01*
X108291612Y-34437503D01*
X108309110Y-34444751D01*
X108309732Y-34444751D01*
X108310307Y-34444981D01*
X108329199Y-34444751D01*
X108348128Y-34444751D01*
X108348701Y-34444513D01*
X108349323Y-34444506D01*
X108368011Y-34438587D01*
X109368011Y-34010016D01*
X109385185Y-34000565D01*
X109412437Y-33972640D01*
X109426928Y-33936413D01*
X109426452Y-33897398D01*
X109411082Y-33861534D01*
X109383158Y-33834283D01*
X109346930Y-33819792D01*
X109307915Y-33820267D01*
X109289227Y-33826187D01*
X108428619Y-34195017D01*
X108428619Y-33680006D01*
X108426698Y-33660497D01*
X108411766Y-33624449D01*
X108384176Y-33596859D01*
X108348128Y-33581927D01*
X108309110Y-33581927D01*
X108273062Y-33596859D01*
X108245472Y-33624449D01*
X108230540Y-33660497D01*
X108228619Y-33680006D01*
X108117508Y-33680006D01*
X108117508Y-33279545D01*
X109135301Y-33279545D01*
X109135301Y-33318563D01*
X109136785Y-33322146D01*
X109150232Y-33354611D01*
X109150233Y-33354612D01*
X109162670Y-33369765D01*
X109210290Y-33417384D01*
X109225443Y-33429821D01*
X109250933Y-33440378D01*
X109261491Y-33444752D01*
X109261492Y-33444752D01*
X109300509Y-33444752D01*
X109321626Y-33436004D01*
X109336558Y-33429820D01*
X109336562Y-33429815D01*
X109351711Y-33417384D01*
X109399329Y-33369765D01*
X109411766Y-33354612D01*
X109423135Y-33327164D01*
X109426698Y-33318563D01*
X109426698Y-33279545D01*
X109411766Y-33243497D01*
X109411766Y-33243496D01*
X109399329Y-33228343D01*
X109351711Y-33180724D01*
X109336562Y-33168292D01*
X109336558Y-33168288D01*
X109321626Y-33162103D01*
X109300509Y-33153356D01*
X109261491Y-33153356D01*
X109250933Y-33157729D01*
X109225443Y-33168287D01*
X109210290Y-33180724D01*
X109162670Y-33228343D01*
X109150233Y-33243496D01*
X109150232Y-33243497D01*
X109139674Y-33268987D01*
X109135301Y-33279545D01*
X108117508Y-33279545D01*
X108117508Y-32537149D01*
X108228619Y-32537149D01*
X108228619Y-32632387D01*
X108230540Y-32651896D01*
X108231915Y-32655216D01*
X108232170Y-32658800D01*
X108239176Y-32677108D01*
X108286795Y-32772346D01*
X108292080Y-32780742D01*
X108293091Y-32783182D01*
X108295344Y-32785928D01*
X108297238Y-32788936D01*
X108299232Y-32790665D01*
X108305527Y-32798336D01*
X108353146Y-32845954D01*
X108360812Y-32852246D01*
X108362545Y-32854244D01*
X108365553Y-32856137D01*
X108368299Y-32858391D01*
X108370739Y-32859401D01*
X108379136Y-32864687D01*
X108474373Y-32912306D01*
X108475801Y-32912852D01*
X108476381Y-32913282D01*
X108484557Y-32916203D01*
X108492682Y-32919312D01*
X108493402Y-32919363D01*
X108494841Y-32919877D01*
X108685317Y-32967496D01*
X108688698Y-32967996D01*
X108690062Y-32968561D01*
X108697412Y-32969284D01*
X108704710Y-32970364D01*
X108706168Y-32970146D01*
X108709571Y-32970482D01*
X108947666Y-32970482D01*
X108951068Y-32970146D01*
X108952527Y-32970364D01*
X108959824Y-32969284D01*
X108967175Y-32968561D01*
X108968538Y-32967996D01*
X108971920Y-32967496D01*
X109162395Y-32919877D01*
X109163832Y-32919363D01*
X109164555Y-32919312D01*
X109172679Y-32916203D01*
X109180856Y-32913282D01*
X109181436Y-32912851D01*
X109182863Y-32912306D01*
X109278101Y-32864687D01*
X109286493Y-32859403D01*
X109288937Y-32858392D01*
X109291686Y-32856135D01*
X109294691Y-32854244D01*
X109296420Y-32852249D01*
X109304090Y-32845955D01*
X109351710Y-32798337D01*
X109358003Y-32790668D01*
X109360000Y-32788937D01*
X109361893Y-32785928D01*
X109364147Y-32783183D01*
X109365157Y-32780742D01*
X109370443Y-32772346D01*
X109418062Y-32677109D01*
X109425068Y-32658800D01*
X109425322Y-32655216D01*
X109426698Y-32651896D01*
X109428619Y-32632387D01*
X109428619Y-32537149D01*
X109426698Y-32517640D01*
X109425322Y-32514319D01*
X109425068Y-32510736D01*
X109418062Y-32492427D01*
X109370443Y-32397190D01*
X109365157Y-32388793D01*
X109364147Y-32386353D01*
X109361893Y-32383607D01*
X109360000Y-32380599D01*
X109358003Y-32378867D01*
X109351710Y-32371199D01*
X109304090Y-32323581D01*
X109296420Y-32317286D01*
X109294691Y-32315292D01*
X109291686Y-32313400D01*
X109288937Y-32311144D01*
X109286493Y-32310132D01*
X109278101Y-32304849D01*
X109182863Y-32257230D01*
X109181436Y-32256684D01*
X109180856Y-32256254D01*
X109172679Y-32253332D01*
X109164555Y-32250224D01*
X109163832Y-32250172D01*
X109162395Y-32249659D01*
X108971920Y-32202040D01*
X108968538Y-32201539D01*
X108967175Y-32200975D01*
X108959824Y-32200251D01*
X108952527Y-32199172D01*
X108951068Y-32199389D01*
X108947666Y-32199054D01*
X108709571Y-32199054D01*
X108706168Y-32199389D01*
X108704710Y-32199172D01*
X108697412Y-32200251D01*
X108690062Y-32200975D01*
X108688698Y-32201539D01*
X108685317Y-32202040D01*
X108494841Y-32249659D01*
X108493402Y-32250172D01*
X108492682Y-32250224D01*
X108484557Y-32253332D01*
X108476381Y-32256254D01*
X108475801Y-32256683D01*
X108474373Y-32257230D01*
X108379136Y-32304849D01*
X108370739Y-32310134D01*
X108368299Y-32311145D01*
X108365553Y-32313398D01*
X108362545Y-32315292D01*
X108360812Y-32317289D01*
X108353146Y-32323582D01*
X108305527Y-32371200D01*
X108299232Y-32378870D01*
X108297238Y-32380600D01*
X108295344Y-32383607D01*
X108293091Y-32386354D01*
X108292080Y-32388793D01*
X108286795Y-32397190D01*
X108239176Y-32492428D01*
X108232170Y-32510736D01*
X108231915Y-32514319D01*
X108230540Y-32517640D01*
X108228619Y-32537149D01*
X108117508Y-32537149D01*
X108117508Y-32087943D01*
X109539730Y-32087943D01*
X109539730Y-35462545D01*
G37*
D12*
X157335652Y-119734438D02*
X157335652Y-117734438D01*
X157335652Y-117734438D02*
X156668985Y-119163009D01*
X156668985Y-119163009D02*
X156002319Y-117734438D01*
X156002319Y-117734438D02*
X156002319Y-119734438D01*
X154192795Y-119734438D02*
X154192795Y-118686819D01*
X154192795Y-118686819D02*
X154288033Y-118496342D01*
X154288033Y-118496342D02*
X154478509Y-118401104D01*
X154478509Y-118401104D02*
X154859462Y-118401104D01*
X154859462Y-118401104D02*
X155049938Y-118496342D01*
X154192795Y-119639200D02*
X154383271Y-119734438D01*
X154383271Y-119734438D02*
X154859462Y-119734438D01*
X154859462Y-119734438D02*
X155049938Y-119639200D01*
X155049938Y-119639200D02*
X155145176Y-119448723D01*
X155145176Y-119448723D02*
X155145176Y-119258247D01*
X155145176Y-119258247D02*
X155049938Y-119067771D01*
X155049938Y-119067771D02*
X154859462Y-118972533D01*
X154859462Y-118972533D02*
X154383271Y-118972533D01*
X154383271Y-118972533D02*
X154192795Y-118877295D01*
X152383271Y-119734438D02*
X152383271Y-117734438D01*
X152383271Y-119639200D02*
X152573747Y-119734438D01*
X152573747Y-119734438D02*
X152954700Y-119734438D01*
X152954700Y-119734438D02*
X153145176Y-119639200D01*
X153145176Y-119639200D02*
X153240414Y-119543961D01*
X153240414Y-119543961D02*
X153335652Y-119353485D01*
X153335652Y-119353485D02*
X153335652Y-118782057D01*
X153335652Y-118782057D02*
X153240414Y-118591580D01*
X153240414Y-118591580D02*
X153145176Y-118496342D01*
X153145176Y-118496342D02*
X152954700Y-118401104D01*
X152954700Y-118401104D02*
X152573747Y-118401104D01*
X152573747Y-118401104D02*
X152383271Y-118496342D01*
X150668985Y-119639200D02*
X150859461Y-119734438D01*
X150859461Y-119734438D02*
X151240414Y-119734438D01*
X151240414Y-119734438D02*
X151430890Y-119639200D01*
X151430890Y-119639200D02*
X151526128Y-119448723D01*
X151526128Y-119448723D02*
X151526128Y-118686819D01*
X151526128Y-118686819D02*
X151430890Y-118496342D01*
X151430890Y-118496342D02*
X151240414Y-118401104D01*
X151240414Y-118401104D02*
X150859461Y-118401104D01*
X150859461Y-118401104D02*
X150668985Y-118496342D01*
X150668985Y-118496342D02*
X150573747Y-118686819D01*
X150573747Y-118686819D02*
X150573747Y-118877295D01*
X150573747Y-118877295D02*
X151526128Y-119067771D01*
X148192794Y-119734438D02*
X148192794Y-117734438D01*
X148192794Y-118496342D02*
X148002318Y-118401104D01*
X148002318Y-118401104D02*
X147621365Y-118401104D01*
X147621365Y-118401104D02*
X147430889Y-118496342D01*
X147430889Y-118496342D02*
X147335651Y-118591580D01*
X147335651Y-118591580D02*
X147240413Y-118782057D01*
X147240413Y-118782057D02*
X147240413Y-119353485D01*
X147240413Y-119353485D02*
X147335651Y-119543961D01*
X147335651Y-119543961D02*
X147430889Y-119639200D01*
X147430889Y-119639200D02*
X147621365Y-119734438D01*
X147621365Y-119734438D02*
X148002318Y-119734438D01*
X148002318Y-119734438D02*
X148192794Y-119639200D01*
X146573746Y-118401104D02*
X146097556Y-119734438D01*
X145621365Y-118401104D02*
X146097556Y-119734438D01*
X146097556Y-119734438D02*
X146288032Y-120210628D01*
X146288032Y-120210628D02*
X146383270Y-120305866D01*
X146383270Y-120305866D02*
X146573746Y-120401104D01*
X143430888Y-119639200D02*
X143145174Y-119734438D01*
X143145174Y-119734438D02*
X142668983Y-119734438D01*
X142668983Y-119734438D02*
X142478507Y-119639200D01*
X142478507Y-119639200D02*
X142383269Y-119543961D01*
X142383269Y-119543961D02*
X142288031Y-119353485D01*
X142288031Y-119353485D02*
X142288031Y-119163009D01*
X142288031Y-119163009D02*
X142383269Y-118972533D01*
X142383269Y-118972533D02*
X142478507Y-118877295D01*
X142478507Y-118877295D02*
X142668983Y-118782057D01*
X142668983Y-118782057D02*
X143049936Y-118686819D01*
X143049936Y-118686819D02*
X143240412Y-118591580D01*
X143240412Y-118591580D02*
X143335650Y-118496342D01*
X143335650Y-118496342D02*
X143430888Y-118305866D01*
X143430888Y-118305866D02*
X143430888Y-118115390D01*
X143430888Y-118115390D02*
X143335650Y-117924914D01*
X143335650Y-117924914D02*
X143240412Y-117829676D01*
X143240412Y-117829676D02*
X143049936Y-117734438D01*
X143049936Y-117734438D02*
X142573745Y-117734438D01*
X142573745Y-117734438D02*
X142288031Y-117829676D01*
X140573745Y-119734438D02*
X140573745Y-118686819D01*
X140573745Y-118686819D02*
X140668983Y-118496342D01*
X140668983Y-118496342D02*
X140859459Y-118401104D01*
X140859459Y-118401104D02*
X141240412Y-118401104D01*
X141240412Y-118401104D02*
X141430888Y-118496342D01*
X140573745Y-119639200D02*
X140764221Y-119734438D01*
X140764221Y-119734438D02*
X141240412Y-119734438D01*
X141240412Y-119734438D02*
X141430888Y-119639200D01*
X141430888Y-119639200D02*
X141526126Y-119448723D01*
X141526126Y-119448723D02*
X141526126Y-119258247D01*
X141526126Y-119258247D02*
X141430888Y-119067771D01*
X141430888Y-119067771D02*
X141240412Y-118972533D01*
X141240412Y-118972533D02*
X140764221Y-118972533D01*
X140764221Y-118972533D02*
X140573745Y-118877295D01*
X139907078Y-118401104D02*
X139145174Y-118401104D01*
X139621364Y-117734438D02*
X139621364Y-119448723D01*
X139621364Y-119448723D02*
X139526126Y-119639200D01*
X139526126Y-119639200D02*
X139335650Y-119734438D01*
X139335650Y-119734438D02*
X139145174Y-119734438D01*
X138478507Y-119734438D02*
X138478507Y-117734438D01*
X137621364Y-119734438D02*
X137621364Y-118686819D01*
X137621364Y-118686819D02*
X137716602Y-118496342D01*
X137716602Y-118496342D02*
X137907078Y-118401104D01*
X137907078Y-118401104D02*
X138192793Y-118401104D01*
X138192793Y-118401104D02*
X138383269Y-118496342D01*
X138383269Y-118496342D02*
X138478507Y-118591580D01*
X136859459Y-118401104D02*
X136383269Y-119734438D01*
X136383269Y-119734438D02*
X135907078Y-118401104D01*
X135145173Y-119734438D02*
X135145173Y-118401104D01*
X135145173Y-117734438D02*
X135240411Y-117829676D01*
X135240411Y-117829676D02*
X135145173Y-117924914D01*
X135145173Y-117924914D02*
X135049935Y-117829676D01*
X135049935Y-117829676D02*
X135145173Y-117734438D01*
X135145173Y-117734438D02*
X135145173Y-117924914D01*
X134192792Y-119734438D02*
X134192792Y-117734438D01*
X134002316Y-118972533D02*
X133430887Y-119734438D01*
X133430887Y-118401104D02*
X134192792Y-119163009D01*
X130668982Y-118782057D02*
X130668982Y-119734438D01*
X131335648Y-117734438D02*
X130668982Y-118782057D01*
X130668982Y-118782057D02*
X130002315Y-117734438D01*
X128573743Y-119639200D02*
X128764219Y-119734438D01*
X128764219Y-119734438D02*
X129145172Y-119734438D01*
X129145172Y-119734438D02*
X129335648Y-119639200D01*
X129335648Y-119639200D02*
X129430886Y-119448723D01*
X129430886Y-119448723D02*
X129430886Y-118686819D01*
X129430886Y-118686819D02*
X129335648Y-118496342D01*
X129335648Y-118496342D02*
X129145172Y-118401104D01*
X129145172Y-118401104D02*
X128764219Y-118401104D01*
X128764219Y-118401104D02*
X128573743Y-118496342D01*
X128573743Y-118496342D02*
X128478505Y-118686819D01*
X128478505Y-118686819D02*
X128478505Y-118877295D01*
X128478505Y-118877295D02*
X129430886Y-119067771D01*
X126764219Y-119639200D02*
X126954695Y-119734438D01*
X126954695Y-119734438D02*
X127335648Y-119734438D01*
X127335648Y-119734438D02*
X127526124Y-119639200D01*
X127526124Y-119639200D02*
X127621362Y-119543961D01*
X127621362Y-119543961D02*
X127716600Y-119353485D01*
X127716600Y-119353485D02*
X127716600Y-118782057D01*
X127716600Y-118782057D02*
X127621362Y-118591580D01*
X127621362Y-118591580D02*
X127526124Y-118496342D01*
X127526124Y-118496342D02*
X127335648Y-118401104D01*
X127335648Y-118401104D02*
X126954695Y-118401104D01*
X126954695Y-118401104D02*
X126764219Y-118496342D01*
X125907076Y-119734438D02*
X125907076Y-117734438D01*
X125049933Y-119734438D02*
X125049933Y-118686819D01*
X125049933Y-118686819D02*
X125145171Y-118496342D01*
X125145171Y-118496342D02*
X125335647Y-118401104D01*
X125335647Y-118401104D02*
X125621362Y-118401104D01*
X125621362Y-118401104D02*
X125811838Y-118496342D01*
X125811838Y-118496342D02*
X125907076Y-118591580D01*
X123240409Y-118401104D02*
X123240409Y-119734438D01*
X124097552Y-118401104D02*
X124097552Y-119448723D01*
X124097552Y-119448723D02*
X124002314Y-119639200D01*
X124002314Y-119639200D02*
X123811838Y-119734438D01*
X123811838Y-119734438D02*
X123526123Y-119734438D01*
X123526123Y-119734438D02*
X123335647Y-119639200D01*
X123335647Y-119639200D02*
X123240409Y-119543961D01*
X122288028Y-119734438D02*
X122288028Y-118401104D01*
X122288028Y-118782057D02*
X122192790Y-118591580D01*
X122192790Y-118591580D02*
X122097552Y-118496342D01*
X122097552Y-118496342D02*
X121907076Y-118401104D01*
X121907076Y-118401104D02*
X121716599Y-118401104D01*
X121049933Y-119734438D02*
X121049933Y-118401104D01*
X121049933Y-117734438D02*
X121145171Y-117829676D01*
X121145171Y-117829676D02*
X121049933Y-117924914D01*
X121049933Y-117924914D02*
X120954695Y-117829676D01*
X120954695Y-117829676D02*
X121049933Y-117734438D01*
X121049933Y-117734438D02*
X121049933Y-117924914D01*
X118573742Y-119543961D02*
X118478504Y-119639200D01*
X118478504Y-119639200D02*
X118573742Y-119734438D01*
X118573742Y-119734438D02*
X118668980Y-119639200D01*
X118668980Y-119639200D02*
X118573742Y-119543961D01*
X118573742Y-119543961D02*
X118573742Y-119734438D01*
X118573742Y-118496342D02*
X118478504Y-118591580D01*
X118478504Y-118591580D02*
X118573742Y-118686819D01*
X118573742Y-118686819D02*
X118668980Y-118591580D01*
X118668980Y-118591580D02*
X118573742Y-118496342D01*
X118573742Y-118496342D02*
X118573742Y-118686819D01*
X117811837Y-120496342D02*
X117716599Y-120401104D01*
X117716599Y-120401104D02*
X117526123Y-120115390D01*
X117526123Y-120115390D02*
X117430885Y-119924914D01*
X117430885Y-119924914D02*
X117335647Y-119639200D01*
X117335647Y-119639200D02*
X117240409Y-119163009D01*
X117240409Y-119163009D02*
X117240409Y-118782057D01*
X117240409Y-118782057D02*
X117335647Y-118305866D01*
X117335647Y-118305866D02*
X117430885Y-118020152D01*
X117430885Y-118020152D02*
X117526123Y-117829676D01*
X117526123Y-117829676D02*
X117716599Y-117543961D01*
X117716599Y-117543961D02*
X117811837Y-117448723D01*
D13*
X89709819Y-46528095D02*
X90519342Y-46528095D01*
X90519342Y-46528095D02*
X90614580Y-46575714D01*
X90614580Y-46575714D02*
X90662200Y-46623333D01*
X90662200Y-46623333D02*
X90709819Y-46718571D01*
X90709819Y-46718571D02*
X90709819Y-46909047D01*
X90709819Y-46909047D02*
X90662200Y-47004285D01*
X90662200Y-47004285D02*
X90614580Y-47051904D01*
X90614580Y-47051904D02*
X90519342Y-47099523D01*
X90519342Y-47099523D02*
X89709819Y-47099523D01*
X89805057Y-47528095D02*
X89757438Y-47575714D01*
X89757438Y-47575714D02*
X89709819Y-47670952D01*
X89709819Y-47670952D02*
X89709819Y-47909047D01*
X89709819Y-47909047D02*
X89757438Y-48004285D01*
X89757438Y-48004285D02*
X89805057Y-48051904D01*
X89805057Y-48051904D02*
X89900295Y-48099523D01*
X89900295Y-48099523D02*
X89995533Y-48099523D01*
X89995533Y-48099523D02*
X90138390Y-48051904D01*
X90138390Y-48051904D02*
X90709819Y-47480476D01*
X90709819Y-47480476D02*
X90709819Y-48099523D01*
D14*
X84412419Y-86265312D02*
X83936228Y-85931979D01*
X84412419Y-85693884D02*
X83412419Y-85693884D01*
X83412419Y-85693884D02*
X83412419Y-86074836D01*
X83412419Y-86074836D02*
X83460038Y-86170074D01*
X83460038Y-86170074D02*
X83507657Y-86217693D01*
X83507657Y-86217693D02*
X83602895Y-86265312D01*
X83602895Y-86265312D02*
X83745752Y-86265312D01*
X83745752Y-86265312D02*
X83840990Y-86217693D01*
X83840990Y-86217693D02*
X83888609Y-86170074D01*
X83888609Y-86170074D02*
X83936228Y-86074836D01*
X83936228Y-86074836D02*
X83936228Y-85693884D01*
X84364800Y-87074836D02*
X84412419Y-86979598D01*
X84412419Y-86979598D02*
X84412419Y-86789122D01*
X84412419Y-86789122D02*
X84364800Y-86693884D01*
X84364800Y-86693884D02*
X84269561Y-86646265D01*
X84269561Y-86646265D02*
X83888609Y-86646265D01*
X83888609Y-86646265D02*
X83793371Y-86693884D01*
X83793371Y-86693884D02*
X83745752Y-86789122D01*
X83745752Y-86789122D02*
X83745752Y-86979598D01*
X83745752Y-86979598D02*
X83793371Y-87074836D01*
X83793371Y-87074836D02*
X83888609Y-87122455D01*
X83888609Y-87122455D02*
X83983847Y-87122455D01*
X83983847Y-87122455D02*
X84079085Y-86646265D01*
X84364800Y-87503408D02*
X84412419Y-87598646D01*
X84412419Y-87598646D02*
X84412419Y-87789122D01*
X84412419Y-87789122D02*
X84364800Y-87884360D01*
X84364800Y-87884360D02*
X84269561Y-87931979D01*
X84269561Y-87931979D02*
X84221942Y-87931979D01*
X84221942Y-87931979D02*
X84126704Y-87884360D01*
X84126704Y-87884360D02*
X84079085Y-87789122D01*
X84079085Y-87789122D02*
X84079085Y-87646265D01*
X84079085Y-87646265D02*
X84031466Y-87551027D01*
X84031466Y-87551027D02*
X83936228Y-87503408D01*
X83936228Y-87503408D02*
X83888609Y-87503408D01*
X83888609Y-87503408D02*
X83793371Y-87551027D01*
X83793371Y-87551027D02*
X83745752Y-87646265D01*
X83745752Y-87646265D02*
X83745752Y-87789122D01*
X83745752Y-87789122D02*
X83793371Y-87884360D01*
X84364800Y-88741503D02*
X84412419Y-88646265D01*
X84412419Y-88646265D02*
X84412419Y-88455789D01*
X84412419Y-88455789D02*
X84364800Y-88360551D01*
X84364800Y-88360551D02*
X84269561Y-88312932D01*
X84269561Y-88312932D02*
X83888609Y-88312932D01*
X83888609Y-88312932D02*
X83793371Y-88360551D01*
X83793371Y-88360551D02*
X83745752Y-88455789D01*
X83745752Y-88455789D02*
X83745752Y-88646265D01*
X83745752Y-88646265D02*
X83793371Y-88741503D01*
X83793371Y-88741503D02*
X83888609Y-88789122D01*
X83888609Y-88789122D02*
X83983847Y-88789122D01*
X83983847Y-88789122D02*
X84079085Y-88312932D01*
X83745752Y-89074837D02*
X83745752Y-89455789D01*
X83412419Y-89217694D02*
X84269561Y-89217694D01*
X84269561Y-89217694D02*
X84364800Y-89265313D01*
X84364800Y-89265313D02*
X84412419Y-89360551D01*
X84412419Y-89360551D02*
X84412419Y-89455789D01*
X128179800Y-95806265D02*
X128227419Y-95949122D01*
X128227419Y-95949122D02*
X128227419Y-96187217D01*
X128227419Y-96187217D02*
X128179800Y-96282455D01*
X128179800Y-96282455D02*
X128132180Y-96330074D01*
X128132180Y-96330074D02*
X128036942Y-96377693D01*
X128036942Y-96377693D02*
X127941704Y-96377693D01*
X127941704Y-96377693D02*
X127846466Y-96330074D01*
X127846466Y-96330074D02*
X127798847Y-96282455D01*
X127798847Y-96282455D02*
X127751228Y-96187217D01*
X127751228Y-96187217D02*
X127703609Y-95996741D01*
X127703609Y-95996741D02*
X127655990Y-95901503D01*
X127655990Y-95901503D02*
X127608371Y-95853884D01*
X127608371Y-95853884D02*
X127513133Y-95806265D01*
X127513133Y-95806265D02*
X127417895Y-95806265D01*
X127417895Y-95806265D02*
X127322657Y-95853884D01*
X127322657Y-95853884D02*
X127275038Y-95901503D01*
X127275038Y-95901503D02*
X127227419Y-95996741D01*
X127227419Y-95996741D02*
X127227419Y-96234836D01*
X127227419Y-96234836D02*
X127275038Y-96377693D01*
X127322657Y-96758646D02*
X127275038Y-96806265D01*
X127275038Y-96806265D02*
X127227419Y-96901503D01*
X127227419Y-96901503D02*
X127227419Y-97139598D01*
X127227419Y-97139598D02*
X127275038Y-97234836D01*
X127275038Y-97234836D02*
X127322657Y-97282455D01*
X127322657Y-97282455D02*
X127417895Y-97330074D01*
X127417895Y-97330074D02*
X127513133Y-97330074D01*
X127513133Y-97330074D02*
X127655990Y-97282455D01*
X127655990Y-97282455D02*
X128227419Y-96711027D01*
X128227419Y-96711027D02*
X128227419Y-97330074D01*
X83412419Y-48863884D02*
X84221942Y-48863884D01*
X84221942Y-48863884D02*
X84317180Y-48911503D01*
X84317180Y-48911503D02*
X84364800Y-48959122D01*
X84364800Y-48959122D02*
X84412419Y-49054360D01*
X84412419Y-49054360D02*
X84412419Y-49244836D01*
X84412419Y-49244836D02*
X84364800Y-49340074D01*
X84364800Y-49340074D02*
X84317180Y-49387693D01*
X84317180Y-49387693D02*
X84221942Y-49435312D01*
X84221942Y-49435312D02*
X83412419Y-49435312D01*
X84364800Y-49863884D02*
X84412419Y-50006741D01*
X84412419Y-50006741D02*
X84412419Y-50244836D01*
X84412419Y-50244836D02*
X84364800Y-50340074D01*
X84364800Y-50340074D02*
X84317180Y-50387693D01*
X84317180Y-50387693D02*
X84221942Y-50435312D01*
X84221942Y-50435312D02*
X84126704Y-50435312D01*
X84126704Y-50435312D02*
X84031466Y-50387693D01*
X84031466Y-50387693D02*
X83983847Y-50340074D01*
X83983847Y-50340074D02*
X83936228Y-50244836D01*
X83936228Y-50244836D02*
X83888609Y-50054360D01*
X83888609Y-50054360D02*
X83840990Y-49959122D01*
X83840990Y-49959122D02*
X83793371Y-49911503D01*
X83793371Y-49911503D02*
X83698133Y-49863884D01*
X83698133Y-49863884D02*
X83602895Y-49863884D01*
X83602895Y-49863884D02*
X83507657Y-49911503D01*
X83507657Y-49911503D02*
X83460038Y-49959122D01*
X83460038Y-49959122D02*
X83412419Y-50054360D01*
X83412419Y-50054360D02*
X83412419Y-50292455D01*
X83412419Y-50292455D02*
X83460038Y-50435312D01*
X83888609Y-51197217D02*
X83936228Y-51340074D01*
X83936228Y-51340074D02*
X83983847Y-51387693D01*
X83983847Y-51387693D02*
X84079085Y-51435312D01*
X84079085Y-51435312D02*
X84221942Y-51435312D01*
X84221942Y-51435312D02*
X84317180Y-51387693D01*
X84317180Y-51387693D02*
X84364800Y-51340074D01*
X84364800Y-51340074D02*
X84412419Y-51244836D01*
X84412419Y-51244836D02*
X84412419Y-50863884D01*
X84412419Y-50863884D02*
X83412419Y-50863884D01*
X83412419Y-50863884D02*
X83412419Y-51197217D01*
X83412419Y-51197217D02*
X83460038Y-51292455D01*
X83460038Y-51292455D02*
X83507657Y-51340074D01*
X83507657Y-51340074D02*
X83602895Y-51387693D01*
X83602895Y-51387693D02*
X83698133Y-51387693D01*
X83698133Y-51387693D02*
X83793371Y-51340074D01*
X83793371Y-51340074D02*
X83840990Y-51292455D01*
X83840990Y-51292455D02*
X83888609Y-51197217D01*
X83888609Y-51197217D02*
X83888609Y-50863884D01*
X128179800Y-43736265D02*
X128227419Y-43879122D01*
X128227419Y-43879122D02*
X128227419Y-44117217D01*
X128227419Y-44117217D02*
X128179800Y-44212455D01*
X128179800Y-44212455D02*
X128132180Y-44260074D01*
X128132180Y-44260074D02*
X128036942Y-44307693D01*
X128036942Y-44307693D02*
X127941704Y-44307693D01*
X127941704Y-44307693D02*
X127846466Y-44260074D01*
X127846466Y-44260074D02*
X127798847Y-44212455D01*
X127798847Y-44212455D02*
X127751228Y-44117217D01*
X127751228Y-44117217D02*
X127703609Y-43926741D01*
X127703609Y-43926741D02*
X127655990Y-43831503D01*
X127655990Y-43831503D02*
X127608371Y-43783884D01*
X127608371Y-43783884D02*
X127513133Y-43736265D01*
X127513133Y-43736265D02*
X127417895Y-43736265D01*
X127417895Y-43736265D02*
X127322657Y-43783884D01*
X127322657Y-43783884D02*
X127275038Y-43831503D01*
X127275038Y-43831503D02*
X127227419Y-43926741D01*
X127227419Y-43926741D02*
X127227419Y-44164836D01*
X127227419Y-44164836D02*
X127275038Y-44307693D01*
X128227419Y-45260074D02*
X128227419Y-44688646D01*
X128227419Y-44974360D02*
X127227419Y-44974360D01*
X127227419Y-44974360D02*
X127370276Y-44879122D01*
X127370276Y-44879122D02*
X127465514Y-44783884D01*
X127465514Y-44783884D02*
X127513133Y-44688646D01*
D15*
%TO.C,TP3*%
X97867000Y-109131000D02*
G75*
G02*
X95467000Y-109131000I-1200000J0D01*
G01*
X95467000Y-109131000D02*
G75*
G02*
X97867000Y-109131000I1200000J0D01*
G01*
%TO.C,TP4*%
X179909000Y-109131000D02*
G75*
G02*
X177509000Y-109131000I-1200000J0D01*
G01*
X177509000Y-109131000D02*
G75*
G02*
X179909000Y-109131000I1200000J0D01*
G01*
%TO.C,TP17*%
X116730000Y-24930000D02*
G75*
G02*
X114330000Y-24930000I-1200000J0D01*
G01*
X114330000Y-24930000D02*
G75*
G02*
X116730000Y-24930000I1200000J0D01*
G01*
%TO.C,TP16*%
X96450000Y-68856000D02*
G75*
G02*
X94050000Y-68856000I-1200000J0D01*
G01*
X94050000Y-68856000D02*
G75*
G02*
X96450000Y-68856000I1200000J0D01*
G01*
%TO.C,TP14*%
X132590400Y-33800000D02*
G75*
G02*
X130190400Y-33800000I-1200000J0D01*
G01*
X130190400Y-33800000D02*
G75*
G02*
X132590400Y-33800000I1200000J0D01*
G01*
%TO.C,TP13*%
X127810600Y-33800000D02*
G75*
G02*
X125410600Y-33800000I-1200000J0D01*
G01*
X125410600Y-33800000D02*
G75*
G02*
X127810600Y-33800000I1200000J0D01*
G01*
%TO.C,TP12*%
X122730000Y-38800000D02*
G75*
G02*
X120330000Y-38800000I-1200000J0D01*
G01*
X120330000Y-38800000D02*
G75*
G02*
X122730000Y-38800000I1200000J0D01*
G01*
%TO.C,TP11*%
X117960000Y-33800000D02*
G75*
G02*
X115560000Y-33800000I-1200000J0D01*
G01*
X115560000Y-33800000D02*
G75*
G02*
X117960000Y-33800000I1200000J0D01*
G01*
%TO.C,TP10*%
X112490600Y-33800000D02*
G75*
G02*
X110090600Y-33800000I-1200000J0D01*
G01*
X110090600Y-33800000D02*
G75*
G02*
X112490600Y-33800000I1200000J0D01*
G01*
%TO.C,TP5*%
X125214333Y-109131000D02*
G75*
G02*
X122814333Y-109131000I-1200000J0D01*
G01*
X122814333Y-109131000D02*
G75*
G02*
X125214333Y-109131000I1200000J0D01*
G01*
%TO.C,TP2*%
X152561667Y-109131000D02*
G75*
G02*
X150161667Y-109131000I-1200000J0D01*
G01*
X150161667Y-109131000D02*
G75*
G02*
X152561667Y-109131000I1200000J0D01*
G01*
D16*
%TO.C,J5*%
X91689106Y-46913500D02*
G75*
G02*
X90927106Y-46913500I-381000J0D01*
G01*
X90927106Y-46913500D02*
G75*
G02*
X91689106Y-46913500I381000J0D01*
G01*
%TO.C,J3*%
X185222895Y-33003100D02*
G75*
G02*
X184460895Y-33003100I-381000J0D01*
G01*
X184460895Y-33003100D02*
G75*
G02*
X185222895Y-33003100I381000J0D01*
G01*
D17*
%TO.C,U2*%
X133638200Y-45385000D02*
G75*
G02*
X133231800Y-45385000I-203200J0D01*
G01*
X133231800Y-45385000D02*
G75*
G02*
X133638200Y-45385000I203200J0D01*
G01*
D14*
X125815000Y-94280000D02*
X130895000Y-94280000D01*
X130895000Y-98090000D01*
X125815000Y-98090000D01*
X125815000Y-94280000D01*
X125815000Y-42210000D02*
X130895000Y-42210000D01*
X130895000Y-46020000D01*
X125815000Y-46020000D01*
X125815000Y-42210000D01*
X82635000Y-84120000D02*
X85175000Y-84120000D01*
X85175000Y-91740000D01*
X82635000Y-91740000D01*
X82635000Y-84120000D01*
X82635000Y-47290000D02*
X85175000Y-47290000D01*
X85175000Y-53640000D01*
X82635000Y-53640000D01*
X82635000Y-47290000D01*
D18*
X186775000Y-98090000D02*
X82635000Y-98090000D01*
X186775000Y-42210000D02*
X186775000Y-98090000D01*
X82635000Y-98090000D02*
X82635000Y-42210000D01*
X82635000Y-42210000D02*
X186775000Y-42210000D01*
%TD*%
%LPC*%
D19*
%TO.C,J8*%
X115150000Y-78450000D03*
D20*
X115150000Y-75910000D03*
X115150000Y-73370000D03*
X115150000Y-70830000D03*
X115150000Y-68290000D03*
X115150000Y-65750000D03*
X115150000Y-63210000D03*
X115150000Y-60670000D03*
%TD*%
D21*
%TO.C,TP3*%
X96667000Y-109131000D03*
%TD*%
%TO.C,TP4*%
X178709000Y-109131000D03*
%TD*%
%TO.C,TP17*%
X115530000Y-24930000D03*
%TD*%
%TO.C,TP16*%
X95250000Y-68856000D03*
%TD*%
%TO.C,TP14*%
X131390400Y-33800000D03*
%TD*%
%TO.C,TP13*%
X126610600Y-33800000D03*
%TD*%
%TO.C,TP12*%
X121530000Y-38800000D03*
%TD*%
%TO.C,TP11*%
X116760000Y-33800000D03*
%TD*%
%TO.C,TP10*%
X111290600Y-33800000D03*
%TD*%
%TO.C,TP5*%
X124014333Y-109131000D03*
%TD*%
%TO.C,TP2*%
X151361667Y-109131000D03*
%TD*%
D19*
%TO.C,JP1*%
X144245000Y-97475000D03*
D22*
X146785000Y-97475000D03*
X149325000Y-97475000D03*
%TD*%
D23*
%TO.C,R12*%
X116920000Y-95680000D03*
D24*
X124540000Y-95680000D03*
%TD*%
D21*
%TO.C,SW1*%
X99917000Y-111381000D03*
X93417000Y-111381000D03*
X99917000Y-106881000D03*
X93417000Y-106881000D03*
%TD*%
%TO.C,SW2*%
X127264333Y-111381000D03*
X120764333Y-111381000D03*
X127264333Y-106881000D03*
X120764333Y-106881000D03*
%TD*%
%TO.C,SW4*%
X181959000Y-111381000D03*
X175459000Y-111381000D03*
X181959000Y-106881000D03*
X175459000Y-106881000D03*
%TD*%
D24*
%TO.C,R13*%
X124470000Y-97920000D03*
D23*
X116850000Y-97920000D03*
%TD*%
D24*
%TO.C,R15*%
X161050000Y-97510000D03*
D23*
X168670000Y-97510000D03*
%TD*%
D21*
%TO.C,SW3*%
X154611667Y-111381000D03*
X148111667Y-111381000D03*
X154611667Y-106881000D03*
X148111667Y-106881000D03*
%TD*%
D24*
%TO.C,R14*%
X161100000Y-99890000D03*
D23*
X168720000Y-99890000D03*
%TD*%
D25*
%TO.C,C4*%
X136750000Y-95870000D03*
D26*
X136750000Y-100950000D03*
%TD*%
D25*
%TO.C,C7*%
X157150000Y-96200000D03*
D26*
X157150000Y-101280000D03*
%TD*%
D25*
%TO.C,C6*%
X159226250Y-42035000D03*
D26*
X164306250Y-42035000D03*
%TD*%
%TO.C,C5*%
X131450000Y-100980000D03*
D25*
X131450000Y-95900000D03*
%TD*%
D23*
%TO.C,R23*%
X172000000Y-65000000D03*
D24*
X179620000Y-65000000D03*
%TD*%
D27*
%TO.C,D10*%
X192065000Y-93975000D03*
D28*
X189525000Y-93975000D03*
%TD*%
D29*
%TO.C,H4*%
X84000000Y-27000000D03*
D30*
X84000000Y-27000000D03*
%TD*%
D29*
%TO.C,H3*%
X192000000Y-27000000D03*
D30*
X192000000Y-27000000D03*
%TD*%
D29*
%TO.C,H2*%
X192000000Y-117000000D03*
D30*
X192000000Y-117000000D03*
%TD*%
D29*
%TO.C,H1*%
X84000000Y-117000000D03*
D30*
X84000000Y-117000000D03*
%TD*%
D31*
%TO.C,J5*%
X91308106Y-34433200D03*
X91308106Y-36933200D03*
X91308106Y-39433200D03*
X91308106Y-41933200D03*
X91308106Y-44433200D03*
%TD*%
%TO.C,J3*%
X184841895Y-45483400D03*
X184841895Y-42983400D03*
X184841895Y-40483400D03*
X184841895Y-37983400D03*
X184841895Y-35483400D03*
%TD*%
D24*
%TO.C,R22*%
X179620000Y-54858000D03*
D23*
X172000000Y-54858000D03*
%TD*%
%TO.C,R21*%
X172000000Y-52420000D03*
D24*
X179620000Y-52420000D03*
%TD*%
%TO.C,R20*%
X144454800Y-32964200D03*
D23*
X144454800Y-25344200D03*
%TD*%
D24*
%TO.C,R19*%
X121539000Y-24511000D03*
D23*
X121539000Y-32131000D03*
%TD*%
D28*
%TO.C,D9*%
X189525000Y-60975000D03*
D27*
X192065000Y-60975000D03*
%TD*%
D28*
%TO.C,D8*%
X189525000Y-52725000D03*
D27*
X192065000Y-52725000D03*
%TD*%
D24*
%TO.C,R11*%
X112953800Y-29967000D03*
D23*
X112953800Y-37587000D03*
%TD*%
D24*
%TO.C,R18*%
X131749800Y-29154200D03*
D23*
X131749800Y-36774200D03*
%TD*%
D22*
%TO.C,J4*%
X102585000Y-85100000D03*
D20*
X105125000Y-85100000D03*
%TD*%
D24*
%TO.C,R4*%
X179620000Y-57500000D03*
D23*
X172000000Y-57500000D03*
%TD*%
D24*
%TO.C,R6*%
X179620000Y-62707000D03*
D23*
X172000000Y-62707000D03*
%TD*%
D32*
%TO.C,U3*%
X155265200Y-25278400D03*
D33*
X152725200Y-25278400D03*
X150185200Y-25278400D03*
X147645200Y-25278400D03*
X147645200Y-32898400D03*
X150185200Y-32898400D03*
X152725200Y-32898400D03*
X155265200Y-32898400D03*
%TD*%
D24*
%TO.C,R17*%
X128397000Y-29250000D03*
D23*
X128397000Y-36870000D03*
%TD*%
D34*
%TO.C,RV1*%
X99450000Y-81456000D03*
X91050000Y-80256000D03*
X91050000Y-57456000D03*
X99450000Y-56256000D03*
D35*
X93500000Y-85356000D03*
D36*
X97000000Y-85356000D03*
X93500000Y-52356000D03*
%TD*%
D24*
%TO.C,R10*%
X110261400Y-29967000D03*
D23*
X110261400Y-37587000D03*
%TD*%
%TO.C,R1*%
X107061000Y-29972000D03*
D24*
X107061000Y-37592000D03*
%TD*%
D20*
%TO.C,J7*%
X126009400Y-25090200D03*
D22*
X128549400Y-25090200D03*
%TD*%
D25*
%TO.C,U5*%
X179620000Y-75153000D03*
X179620000Y-77693000D03*
X179620000Y-80233000D03*
X179620000Y-82773000D03*
X179620000Y-85313000D03*
X179620000Y-87853000D03*
X179620000Y-90393000D03*
X179620000Y-92933000D03*
X172000000Y-92933000D03*
X172000000Y-90393000D03*
X172000000Y-87853000D03*
X172000000Y-85313000D03*
X172000000Y-82773000D03*
X172000000Y-80233000D03*
X172000000Y-77693000D03*
D37*
X172000000Y-75153000D03*
%TD*%
D22*
%TO.C,TP1*%
X102357000Y-33909000D03*
D20*
X99817000Y-33909000D03*
%TD*%
D24*
%TO.C,R8*%
X121488200Y-34589800D03*
D23*
X121488200Y-42209800D03*
%TD*%
D26*
%TO.C,C3*%
X138917600Y-26512600D03*
D25*
X138917600Y-31592600D03*
%TD*%
D38*
%TO.C,C2*%
X156048000Y-38907800D03*
D39*
X150968000Y-38907800D03*
%TD*%
D22*
%TO.C,J6*%
X102615000Y-39950000D03*
D20*
X100075000Y-39950000D03*
%TD*%
D28*
%TO.C,D3*%
X189525000Y-77475000D03*
D27*
X192065000Y-77475000D03*
%TD*%
D38*
%TO.C,C1*%
X142626000Y-38857000D03*
D39*
X147706000Y-38857000D03*
%TD*%
D24*
%TO.C,R16*%
X125603000Y-29205000D03*
D23*
X125603000Y-36825000D03*
%TD*%
D24*
%TO.C,R9*%
X117119400Y-29916200D03*
D23*
X117119400Y-37536200D03*
%TD*%
D24*
%TO.C,R5*%
X179620000Y-60167000D03*
D23*
X172000000Y-60167000D03*
%TD*%
D24*
%TO.C,R7*%
X142016400Y-25344200D03*
D23*
X142016400Y-32964200D03*
%TD*%
D19*
%TO.C,J2*%
X161544000Y-31491000D03*
D22*
X161544000Y-34031000D03*
%TD*%
D27*
%TO.C,D1*%
X102616000Y-27178000D03*
D28*
X100076000Y-27178000D03*
%TD*%
%TO.C,D2*%
X189525000Y-69225000D03*
D27*
X192065000Y-69225000D03*
%TD*%
D40*
%TO.C,U2*%
X156295000Y-90470000D03*
X153755000Y-90470000D03*
X151215000Y-90470000D03*
X148675000Y-90470000D03*
X146135000Y-90470000D03*
X143595000Y-90470000D03*
X141055000Y-90470000D03*
X138515000Y-90470000D03*
X135975000Y-90470000D03*
X133435000Y-90470000D03*
X156295000Y-49830000D03*
X153755000Y-49830000D03*
X151215000Y-49830000D03*
X148675000Y-49830000D03*
X146135000Y-49830000D03*
X143595000Y-49830000D03*
X141055000Y-49830000D03*
X138515000Y-49830000D03*
X135975000Y-49830000D03*
X133435000Y-49830000D03*
X156295000Y-93010000D03*
X153755000Y-93010000D03*
X151215000Y-93010000D03*
X148675000Y-93010000D03*
X146135000Y-93010000D03*
X143595000Y-93010000D03*
X141055000Y-93010000D03*
X138515000Y-93010000D03*
X135975000Y-93010000D03*
X133435000Y-93010000D03*
X156295000Y-47290000D03*
X153755000Y-47290000D03*
X151215000Y-47290000D03*
X148675000Y-47290000D03*
X146135000Y-47290000D03*
X143595000Y-47290000D03*
X141055000Y-47290000D03*
X138515000Y-47290000D03*
X135975000Y-47290000D03*
D41*
X133435000Y-47290000D03*
%TD*%
D28*
%TO.C,D5*%
X189525000Y-85725000D03*
D27*
X192065000Y-85725000D03*
%TD*%
%LPD*%
M02*
