M48
; DRILL file {KiCad 9.0.4} date 2026-04-14T20:58:39-0500
; FORMAT={-:-/ absolute / metric / decimal}
; #@! TF.CreationDate,2026-04-14T20:58:39-05:00
; #@! TF.GenerationSoftware,Kicad,Pcbnew,9.0.4
; #@! TF.FileFunction,Plated,1,2,PTH
FMAT,2
METRIC
; #@! TA.AperFunction,Plated,PTH,ViaDrill
T1C0.400
; #@! TA.AperFunction,Plated,PTH,ComponentDrill
T2C0.700
; #@! TA.AperFunction,Plated,PTH,ComponentDrill
T3C0.800
; #@! TA.AperFunction,Plated,PTH,ComponentDrill
T4C0.890
; #@! TA.AperFunction,Plated,PTH,ComponentDrill
T5C0.900
; #@! TA.AperFunction,Plated,PTH,ComponentDrill
T6C1.000
; #@! TA.AperFunction,Plated,PTH,ComponentDrill
T7C1.100
; #@! TA.AperFunction,Plated,PTH,ComponentDrill
T8C1.200
; #@! TA.AperFunction,Plated,PTH,ComponentDrill
T9C1.245
; #@! TA.AperFunction,Plated,PTH,ComponentDrill
T10C1.270
; #@! TA.AperFunction,Plated,PTH,ComponentDrill
T11C3.200
%
G90
G05
T1
X105.15Y-101.9
X105.2Y-105.1
X111.7Y-49.5
X111.825Y-53.375
X113.45Y-46.025
X113.45Y-49.875
X115.45Y-102.025
X115.5Y-105.225
X115.53Y-24.93
X117.3Y-47.3
X118.151Y-68.47
X118.674Y-50.1
X118.86Y-82.89
X120.025Y-45.45
X120.15Y-44.1
X120.4Y-76.45
X121.7Y-68.43
X121.925Y-45.975
X122.4Y-44.65
X123.05Y-73.8
X123.864Y-42.364
X125.35Y-82.89
X127.9Y-51.95
X128.0Y-49.2
X128.85Y-86.675
X129.4Y-49.2
X129.45Y-51.95
X129.5Y-39.65
X129.5Y-80.0
X129.55Y-42.4
X129.65Y-103.175
X129.7Y-106.375
X131.05Y-50.191
X131.17Y-78.42
X132.3Y-39.7
X132.35Y-42.45
X132.875Y-86.7
X136.0Y-54.75
X137.425Y-77.2
X137.475Y-73.475
X137.625Y-62.775
X137.65Y-59.875
X139.1Y-85.725
X139.7Y-53.975
X140.176Y-55.77
X140.725Y-77.2
X140.775Y-73.475
X140.869Y-52.174
X140.925Y-62.775
X140.95Y-59.875
X141.075Y-86.125
X143.55Y-51.541
X144.03Y-88.358
X144.7Y-49.001
X145.0Y-93.9
X145.1Y-56.75
X147.23Y-55.12
X147.433Y-49.414
X147.45Y-46.2
X149.2Y-44.3
X149.85Y-56.75
X151.15Y-51.7
X151.2Y-87.85
X151.35Y-63.01
X152.01Y-89.05
X152.5Y-56.9
X153.65Y-88.6
X153.95Y-78.3
X154.675Y-65.3
X155.55Y-79.75
X156.74Y-63.02
X156.95Y-75.15
X157.25Y-56.9
X158.55Y-76.6
X159.13Y-73.43
X160.45Y-87.85
X161.25Y-83.25
X162.43Y-73.43
X164.55Y-83.25
X169.48Y-96.37
X169.53Y-92.77
X173.95Y-46.2
X174.5Y-101.78
X174.55Y-98.18
T2
X107.061Y-29.972
X107.061Y-37.592
X110.261Y-29.967
X110.261Y-37.587
X112.954Y-29.967
X112.954Y-37.587
X116.85Y-97.92
X116.92Y-95.68
X117.119Y-29.916
X117.119Y-37.536
X121.488Y-34.59
X121.488Y-42.21
X121.539Y-24.511
X121.539Y-32.131
X124.47Y-97.92
X124.54Y-95.68
X125.603Y-29.205
X125.603Y-36.825
X128.397Y-29.25
X128.397Y-36.87
X131.75Y-29.154
X131.75Y-36.774
X142.016Y-25.344
X142.016Y-32.964
X144.455Y-25.344
X144.455Y-32.964
X161.05Y-97.51
X161.1Y-99.89
X168.67Y-97.51
X168.72Y-99.89
X172.0Y-52.42
X172.0Y-54.858
X172.0Y-57.5
X172.0Y-60.167
X172.0Y-62.707
X172.0Y-65.0
X179.62Y-52.42
X179.62Y-54.858
X179.62Y-57.5
X179.62Y-60.167
X179.62Y-62.707
X179.62Y-65.0
T3
X131.45Y-95.9
X131.45Y-100.98
X136.75Y-95.87
X136.75Y-100.95
X138.918Y-26.513
X138.918Y-31.593
X147.645Y-25.278
X147.645Y-32.898
X150.185Y-25.278
X150.185Y-32.898
X152.725Y-25.278
X152.725Y-32.898
X155.265Y-25.278
X155.265Y-32.898
X157.15Y-96.2
X157.15Y-101.28
X159.226Y-42.035
X164.306Y-42.035
X172.0Y-75.153
X172.0Y-77.693
X172.0Y-80.233
X172.0Y-82.773
X172.0Y-85.313
X172.0Y-87.853
X172.0Y-90.393
X172.0Y-92.933
X179.62Y-75.153
X179.62Y-77.693
X179.62Y-80.233
X179.62Y-82.773
X179.62Y-85.313
X179.62Y-87.853
X179.62Y-90.393
X179.62Y-92.933
T4
X133.435Y-47.29
X133.435Y-49.83
X133.435Y-90.47
X133.435Y-93.01
X135.975Y-47.29
X135.975Y-49.83
X135.975Y-90.47
X135.975Y-93.01
X138.515Y-47.29
X138.515Y-49.83
X138.515Y-90.47
X138.515Y-93.01
X141.055Y-47.29
X141.055Y-49.83
X141.055Y-90.47
X141.055Y-93.01
X143.595Y-47.29
X143.595Y-49.83
X143.595Y-90.47
X143.595Y-93.01
X146.135Y-47.29
X146.135Y-49.83
X146.135Y-90.47
X146.135Y-93.01
X148.675Y-47.29
X148.675Y-49.83
X148.675Y-90.47
X148.675Y-93.01
X151.215Y-47.29
X151.215Y-49.83
X151.215Y-90.47
X151.215Y-93.01
X153.755Y-47.29
X153.755Y-49.83
X153.755Y-90.47
X153.755Y-93.01
X156.295Y-47.29
X156.295Y-49.83
X156.295Y-90.47
X156.295Y-93.01
T5
X100.076Y-27.178
X102.616Y-27.178
X189.525Y-52.725
X189.525Y-60.975
X189.525Y-69.225
X189.525Y-77.475
X189.525Y-85.725
X189.525Y-93.975
X192.065Y-52.725
X192.065Y-60.975
X192.065Y-69.225
X192.065Y-77.475
X192.065Y-85.725
X192.065Y-93.975
T6
X99.817Y-33.909
X100.075Y-39.95
X102.357Y-33.909
X102.585Y-85.1
X102.615Y-39.95
X105.125Y-85.1
X115.15Y-60.67
X115.15Y-63.21
X115.15Y-65.75
X115.15Y-68.29
X115.15Y-70.83
X115.15Y-73.37
X115.15Y-75.91
X115.15Y-78.45
X126.009Y-25.09
X128.549Y-25.09
X144.245Y-97.475
X146.785Y-97.475
X149.325Y-97.475
X161.544Y-31.491
X161.544Y-34.031
T7
X93.417Y-106.881
X93.417Y-111.381
X99.917Y-106.881
X99.917Y-111.381
X120.764Y-106.881
X120.764Y-111.381
X127.264Y-106.881
X127.264Y-111.381
X148.112Y-106.881
X148.112Y-111.381
X154.612Y-106.881
X154.612Y-111.381
X175.459Y-106.881
X175.459Y-111.381
X181.959Y-106.881
X181.959Y-111.381
T8
X93.5Y-52.356
X93.5Y-85.356
X97.0Y-85.356
T9
X91.308Y-34.433
X91.308Y-36.933
X91.308Y-39.433
X91.308Y-41.933
X91.308Y-44.433
X184.842Y-35.483
X184.842Y-37.983
X184.842Y-40.483
X184.842Y-42.983
X184.842Y-45.483
T10
X142.626Y-38.857
X147.706Y-38.857
X150.968Y-38.908
X156.048Y-38.908
T11
X84.0Y-27.0
X84.0Y-117.0
X192.0Y-27.0
X192.0Y-117.0
M30
