%TF.GenerationSoftware,KiCad,Pcbnew,9.0.4*%
%TF.CreationDate,2026-04-14T20:57:48-05:00*%
%TF.ProjectId,DuelTank,4475656c-5461-46e6-9b2e-6b696361645f,v1.0.2*%
%TF.SameCoordinates,Original*%
%TF.FileFunction,Soldermask,Bot*%
%TF.FilePolarity,Negative*%
%FSLAX46Y46*%
G04 Gerber Fmt 4.6, Leading zero omitted, Abs format (unit mm)*
G04 Created by KiCad (PCBNEW 9.0.4) date 2026-04-14 20:57:48*
%MOMM*%
%LPD*%
G01*
G04 APERTURE LIST*
G04 Aperture macros list*
%AMRoundRect*
0 Rectangle with rounded corners*
0 $1 Rounding radius*
0 $2 $3 $4 $5 $6 $7 $8 $9 X,Y pos of 4 corners*
0 Add a 4 corners polygon primitive as box body*
4,1,4,$2,$3,$4,$5,$6,$7,$8,$9,$2,$3,0*
0 Add four circle primitives for the rounded corners*
1,1,$1+$1,$2,$3*
1,1,$1+$1,$4,$5*
1,1,$1+$1,$6,$7*
1,1,$1+$1,$8,$9*
0 Add four rect primitives between the rounded corners*
20,1,$1+$1,$2,$3,$4,$5,0*
20,1,$1+$1,$4,$5,$6,$7,0*
20,1,$1+$1,$6,$7,$8,$9,0*
20,1,$1+$1,$8,$9,$2,$3,0*%
G04 Aperture macros list end*
%ADD10R,1.700000X1.700000*%
%ADD11C,1.700000*%
%ADD12C,2.000000*%
%ADD13O,1.700000X1.700000*%
%ADD14O,1.400000X1.400000*%
%ADD15C,1.400000*%
%ADD16O,1.600000X1.600000*%
%ADD17C,1.600000*%
%ADD18C,1.800000*%
%ADD19R,1.800000X1.800000*%
%ADD20C,6.400000*%
%ADD21C,3.600000*%
%ADD22C,1.752600*%
%ADD23R,1.600000X2.400000*%
%ADD24O,1.600000X2.400000*%
%ADD25C,2.700000*%
%ADD26R,1.750000X1.750000*%
%ADD27C,1.750000*%
%ADD28R,1.600000X1.600000*%
%ADD29R,2.032000X2.032000*%
%ADD30C,2.032000*%
%ADD31C,1.724000*%
%ADD32RoundRect,0.102000X-0.760000X0.760000X-0.760000X-0.760000X0.760000X-0.760000X0.760000X0.760000X0*%
G04 APERTURE END LIST*
D10*
%TO.C,J8*%
X115150000Y-78450000D03*
D11*
X115150000Y-75910000D03*
X115150000Y-73370000D03*
X115150000Y-70830000D03*
X115150000Y-68290000D03*
X115150000Y-65750000D03*
X115150000Y-63210000D03*
X115150000Y-60670000D03*
%TD*%
D12*
%TO.C,TP3*%
X96667000Y-109131000D03*
%TD*%
%TO.C,TP4*%
X178709000Y-109131000D03*
%TD*%
%TO.C,TP17*%
X115530000Y-24930000D03*
%TD*%
%TO.C,TP16*%
X95250000Y-68856000D03*
%TD*%
%TO.C,TP14*%
X131390400Y-33800000D03*
%TD*%
%TO.C,TP13*%
X126610600Y-33800000D03*
%TD*%
%TO.C,TP12*%
X121530000Y-38800000D03*
%TD*%
%TO.C,TP11*%
X116760000Y-33800000D03*
%TD*%
%TO.C,TP10*%
X111290600Y-33800000D03*
%TD*%
%TO.C,TP5*%
X124014333Y-109131000D03*
%TD*%
%TO.C,TP2*%
X151361667Y-109131000D03*
%TD*%
D10*
%TO.C,JP1*%
X144245000Y-97475000D03*
D13*
X146785000Y-97475000D03*
X149325000Y-97475000D03*
%TD*%
D14*
%TO.C,R12*%
X116920000Y-95680000D03*
D15*
X124540000Y-95680000D03*
%TD*%
D12*
%TO.C,SW1*%
X99917000Y-111381000D03*
X93417000Y-111381000D03*
X99917000Y-106881000D03*
X93417000Y-106881000D03*
%TD*%
%TO.C,SW2*%
X127264333Y-111381000D03*
X120764333Y-111381000D03*
X127264333Y-106881000D03*
X120764333Y-106881000D03*
%TD*%
%TO.C,SW4*%
X181959000Y-111381000D03*
X175459000Y-111381000D03*
X181959000Y-106881000D03*
X175459000Y-106881000D03*
%TD*%
D15*
%TO.C,R13*%
X124470000Y-97920000D03*
D14*
X116850000Y-97920000D03*
%TD*%
D15*
%TO.C,R15*%
X161050000Y-97510000D03*
D14*
X168670000Y-97510000D03*
%TD*%
D12*
%TO.C,SW3*%
X154611667Y-111381000D03*
X148111667Y-111381000D03*
X154611667Y-106881000D03*
X148111667Y-106881000D03*
%TD*%
D15*
%TO.C,R14*%
X161100000Y-99890000D03*
D14*
X168720000Y-99890000D03*
%TD*%
D16*
%TO.C,C4*%
X136750000Y-95870000D03*
D17*
X136750000Y-100950000D03*
%TD*%
D16*
%TO.C,C7*%
X157150000Y-96200000D03*
D17*
X157150000Y-101280000D03*
%TD*%
D16*
%TO.C,C6*%
X159226250Y-42035000D03*
D17*
X164306250Y-42035000D03*
%TD*%
%TO.C,C5*%
X131450000Y-100980000D03*
D16*
X131450000Y-95900000D03*
%TD*%
D14*
%TO.C,R23*%
X172000000Y-65000000D03*
D15*
X179620000Y-65000000D03*
%TD*%
D18*
%TO.C,D10*%
X192065000Y-93975000D03*
D19*
X189525000Y-93975000D03*
%TD*%
D20*
%TO.C,H4*%
X84000000Y-27000000D03*
D21*
X84000000Y-27000000D03*
%TD*%
D20*
%TO.C,H3*%
X192000000Y-27000000D03*
D21*
X192000000Y-27000000D03*
%TD*%
D20*
%TO.C,H2*%
X192000000Y-117000000D03*
D21*
X192000000Y-117000000D03*
%TD*%
D20*
%TO.C,H1*%
X84000000Y-117000000D03*
D21*
X84000000Y-117000000D03*
%TD*%
D22*
%TO.C,J5*%
X91308106Y-34433200D03*
X91308106Y-36933200D03*
X91308106Y-39433200D03*
X91308106Y-41933200D03*
X91308106Y-44433200D03*
%TD*%
%TO.C,J3*%
X184841895Y-45483400D03*
X184841895Y-42983400D03*
X184841895Y-40483400D03*
X184841895Y-37983400D03*
X184841895Y-35483400D03*
%TD*%
D15*
%TO.C,R22*%
X179620000Y-54858000D03*
D14*
X172000000Y-54858000D03*
%TD*%
%TO.C,R21*%
X172000000Y-52420000D03*
D15*
X179620000Y-52420000D03*
%TD*%
%TO.C,R20*%
X144454800Y-32964200D03*
D14*
X144454800Y-25344200D03*
%TD*%
D15*
%TO.C,R19*%
X121539000Y-24511000D03*
D14*
X121539000Y-32131000D03*
%TD*%
D19*
%TO.C,D9*%
X189525000Y-60975000D03*
D18*
X192065000Y-60975000D03*
%TD*%
D19*
%TO.C,D8*%
X189525000Y-52725000D03*
D18*
X192065000Y-52725000D03*
%TD*%
D15*
%TO.C,R11*%
X112953800Y-29967000D03*
D14*
X112953800Y-37587000D03*
%TD*%
D15*
%TO.C,R18*%
X131749800Y-29154200D03*
D14*
X131749800Y-36774200D03*
%TD*%
D13*
%TO.C,J4*%
X102585000Y-85100000D03*
D11*
X105125000Y-85100000D03*
%TD*%
D15*
%TO.C,R4*%
X179620000Y-57500000D03*
D14*
X172000000Y-57500000D03*
%TD*%
D15*
%TO.C,R6*%
X179620000Y-62707000D03*
D14*
X172000000Y-62707000D03*
%TD*%
D23*
%TO.C,U3*%
X155265200Y-25278400D03*
D24*
X152725200Y-25278400D03*
X150185200Y-25278400D03*
X147645200Y-25278400D03*
X147645200Y-32898400D03*
X150185200Y-32898400D03*
X152725200Y-32898400D03*
X155265200Y-32898400D03*
%TD*%
D15*
%TO.C,R17*%
X128397000Y-29250000D03*
D14*
X128397000Y-36870000D03*
%TD*%
D25*
%TO.C,RV1*%
X99450000Y-81456000D03*
X91050000Y-80256000D03*
X91050000Y-57456000D03*
X99450000Y-56256000D03*
D26*
X93500000Y-85356000D03*
D27*
X97000000Y-85356000D03*
X93500000Y-52356000D03*
%TD*%
D15*
%TO.C,R10*%
X110261400Y-29967000D03*
D14*
X110261400Y-37587000D03*
%TD*%
%TO.C,R1*%
X107061000Y-29972000D03*
D15*
X107061000Y-37592000D03*
%TD*%
D11*
%TO.C,J7*%
X126009400Y-25090200D03*
D13*
X128549400Y-25090200D03*
%TD*%
D16*
%TO.C,U5*%
X179620000Y-75153000D03*
X179620000Y-77693000D03*
X179620000Y-80233000D03*
X179620000Y-82773000D03*
X179620000Y-85313000D03*
X179620000Y-87853000D03*
X179620000Y-90393000D03*
X179620000Y-92933000D03*
X172000000Y-92933000D03*
X172000000Y-90393000D03*
X172000000Y-87853000D03*
X172000000Y-85313000D03*
X172000000Y-82773000D03*
X172000000Y-80233000D03*
X172000000Y-77693000D03*
D28*
X172000000Y-75153000D03*
%TD*%
D13*
%TO.C,TP1*%
X102357000Y-33909000D03*
D11*
X99817000Y-33909000D03*
%TD*%
D15*
%TO.C,R8*%
X121488200Y-34589800D03*
D14*
X121488200Y-42209800D03*
%TD*%
D17*
%TO.C,C3*%
X138917600Y-26512600D03*
D16*
X138917600Y-31592600D03*
%TD*%
D29*
%TO.C,C2*%
X156048000Y-38907800D03*
D30*
X150968000Y-38907800D03*
%TD*%
D13*
%TO.C,J6*%
X102615000Y-39950000D03*
D11*
X100075000Y-39950000D03*
%TD*%
D19*
%TO.C,D3*%
X189525000Y-77475000D03*
D18*
X192065000Y-77475000D03*
%TD*%
D29*
%TO.C,C1*%
X142626000Y-38857000D03*
D30*
X147706000Y-38857000D03*
%TD*%
D15*
%TO.C,R16*%
X125603000Y-29205000D03*
D14*
X125603000Y-36825000D03*
%TD*%
D15*
%TO.C,R9*%
X117119400Y-29916200D03*
D14*
X117119400Y-37536200D03*
%TD*%
D15*
%TO.C,R5*%
X179620000Y-60167000D03*
D14*
X172000000Y-60167000D03*
%TD*%
D15*
%TO.C,R7*%
X142016400Y-25344200D03*
D14*
X142016400Y-32964200D03*
%TD*%
D10*
%TO.C,J2*%
X161544000Y-31491000D03*
D13*
X161544000Y-34031000D03*
%TD*%
D18*
%TO.C,D1*%
X102616000Y-27178000D03*
D19*
X100076000Y-27178000D03*
%TD*%
%TO.C,D2*%
X189525000Y-69225000D03*
D18*
X192065000Y-69225000D03*
%TD*%
D31*
%TO.C,U2*%
X156295000Y-90470000D03*
X153755000Y-90470000D03*
X151215000Y-90470000D03*
X148675000Y-90470000D03*
X146135000Y-90470000D03*
X143595000Y-90470000D03*
X141055000Y-90470000D03*
X138515000Y-90470000D03*
X135975000Y-90470000D03*
X133435000Y-90470000D03*
X156295000Y-49830000D03*
X153755000Y-49830000D03*
X151215000Y-49830000D03*
X148675000Y-49830000D03*
X146135000Y-49830000D03*
X143595000Y-49830000D03*
X141055000Y-49830000D03*
X138515000Y-49830000D03*
X135975000Y-49830000D03*
X133435000Y-49830000D03*
X156295000Y-93010000D03*
X153755000Y-93010000D03*
X151215000Y-93010000D03*
X148675000Y-93010000D03*
X146135000Y-93010000D03*
X143595000Y-93010000D03*
X141055000Y-93010000D03*
X138515000Y-93010000D03*
X135975000Y-93010000D03*
X133435000Y-93010000D03*
X156295000Y-47290000D03*
X153755000Y-47290000D03*
X151215000Y-47290000D03*
X148675000Y-47290000D03*
X146135000Y-47290000D03*
X143595000Y-47290000D03*
X141055000Y-47290000D03*
X138515000Y-47290000D03*
X135975000Y-47290000D03*
D32*
X133435000Y-47290000D03*
%TD*%
D19*
%TO.C,D5*%
X189525000Y-85725000D03*
D18*
X192065000Y-85725000D03*
%TD*%
M02*
